<svg width="70" height="81" viewBox="0 0 70 81" fill="none" xmlns="http://www.w3.org/2000/svg">
<g clip-path="url(#clip0_141_396)">
<path d="M38.75 22.5H31.25V42.5H38.75V22.5Z" fill="#454343"/>
<path d="M18.75 20V56.25H16.25C14.9239 56.25 13.6521 56.7768 12.7145 57.7145C11.7768 58.6521 11.25 59.9239 11.25 61.25V25C11.25 23.6739 11.7768 22.4021 12.7145 21.4645C13.6521 20.5268 14.9239 20 16.25 20H18.75Z" fill="#454343"/>
<path d="M36.25 60H28.75C27.7554 60 26.8016 59.6049 26.0983 58.9016C25.3951 58.1984 25 57.2446 25 56.25C25 55.2554 25.3951 54.3016 26.0983 53.5983C26.8016 52.8951 27.7554 52.5 28.75 52.5H45C45.3315 52.5 45.6495 52.3683 45.8839 52.1339C46.1183 51.8995 46.25 51.5815 46.25 51.25C46.25 50.9185 46.1183 50.6005 45.8839 50.3661C45.6495 50.1317 45.3315 50 45 50H35C34.6685 50 34.3505 49.8683 34.1161 49.6339C33.8817 49.3995 33.75 49.0815 33.75 48.75C33.75 48.4185 33.8817 48.1005 34.1161 47.8661C34.3505 47.6317 34.6685 47.5 35 47.5H45C45.9946 47.5 46.9484 47.8951 47.6517 48.5983C48.3549 49.3016 48.75 50.2554 48.75 51.25C48.75 52.2446 48.3549 53.1984 47.6517 53.9017C46.9484 54.6049 45.9946 55 45 55H28.75C28.4185 55 28.1005 55.1317 27.8661 55.3661C27.6317 55.6005 27.5 55.9185 27.5 56.25C27.5 56.5815 27.6317 56.8995 27.8661 57.1339C28.1005 57.3683 28.4185 57.5 28.75 57.5H36.25C36.5815 57.5 36.8995 57.6317 37.1339 57.8661C37.3683 58.1005 37.5 58.4185 37.5 58.75C37.5 59.0815 37.3683 59.3995 37.1339 59.6339C36.8995 59.8683 36.5815 60 36.25 60Z" fill="#454343"/>
<path d="M68.75 25H40V20C40 18.6739 39.4732 17.4021 38.5355 16.4645C37.5979 15.5268 36.3261 15 35 15C33.6739 15 32.4021 15.5268 31.4645 16.4645C30.5268 17.4021 30 18.6739 30 20V25H20V20C20 19.6685 19.8683 19.3505 19.6339 19.1161C19.3995 18.8817 19.0815 18.75 18.75 18.75H16.25C14.5924 18.75 13.0027 19.4085 11.8306 20.5806C10.6585 21.7527 10 23.3424 10 25L10 61.25C10 62.9076 10.6585 64.4973 11.8306 65.6694C13.0027 66.8415 14.5924 67.5 16.25 67.5H45V65H16.25C15.2554 65 14.3016 64.6049 13.5983 63.9016C12.8951 63.1984 12.5 62.2446 12.5 61.25C12.5 60.2554 12.8951 59.3016 13.5983 58.5984C14.3016 57.8951 15.2554 57.5 16.25 57.5H18.75C19.0815 57.5 19.3995 57.3683 19.6339 57.1339C19.8683 56.8995 20 56.5815 20 56.25V27.5H30C30 42.6375 29.9375 42.7375 30.1375 43.0375C30.3375 43.3375 29.8875 42.6625 33.8875 49.3875C33.9982 49.574 34.1555 49.7285 34.344 49.8359C34.5324 49.9432 34.7456 49.9996 34.9625 49.9996C35.1794 49.9996 35.3926 49.9432 35.581 49.8359C35.7695 49.7285 35.9268 49.574 36.0375 49.3875C40.075 42.6625 39.7875 43.1375 39.7875 43.0375C39.7875 42.9375 40 42.6375 40 27.5H67.5V65H62.5V67.5H68.75C69.0815 67.5 69.3995 67.3683 69.6339 67.1339C69.8683 66.8995 70 66.5815 70 66.25V26.25C70 25.9185 69.8683 25.6005 69.6339 25.3661C69.3995 25.1317 69.0815 25 68.75 25ZM17.5 55C15.7348 54.7618 13.9454 55.2091 12.5 56.25V25C12.5 24.0054 12.8951 23.0516 13.5983 22.3483C14.3016 21.6451 15.2554 21.25 16.25 21.25H17.5V55ZM35 46.325L33.4625 43.75H36.5375L35 46.325ZM37.5 41.25H32.5V23.75H37.5V41.25ZM37.5 21.25H32.5V20C32.5 19.337 32.7634 18.7011 33.2322 18.2322C33.7011 17.7634 34.337 17.5 35 17.5C35.663 17.5 36.2989 17.7634 36.7678 18.2322C37.2366 18.7011 37.5 19.337 37.5 20V21.25Z" fill="#545458"/>
<path d="M30 75H62.5V50L30 75ZM57.5 70H44.625L57.5 60.1875V70Z" fill="#54E17F"/>
<path d="M57.5 36.375V32.5C57.5 32.1685 57.3683 31.8505 57.1339 31.6161C56.8995 31.3817 56.5815 31.25 56.25 31.25H46.25C45.9185 31.25 45.6005 31.3817 45.3661 31.6161C45.1317 31.8505 45 32.1685 45 32.5V42.5C45 42.8315 45.1317 43.1495 45.3661 43.3839C45.6005 43.6183 45.9185 43.75 46.25 43.75H50.125C50.3511 44.8561 50.8726 45.8804 51.6341 46.7139C52.3956 47.5474 53.3686 48.1591 54.4499 48.484C55.5311 48.8089 56.6802 48.8349 57.775 48.5591C58.8698 48.2833 59.8695 47.7161 60.6678 46.9178C61.4661 46.1195 62.0333 45.1198 62.3091 44.025C62.5849 42.9302 62.5589 41.7811 62.234 40.6999C61.9092 39.6186 61.2974 38.6456 60.4639 37.8841C59.6304 37.1226 58.6061 36.6011 57.5 36.375V36.375ZM47.5 33.75H55V36.375C53.7989 36.62 52.6963 37.2127 51.8295 38.0795C50.9627 38.9463 50.37 40.0489 50.125 41.25H47.5V33.75ZM55 38.975V41.25H52.725C52.9116 40.7258 53.2126 40.2496 53.6061 39.8561C53.9996 39.4626 54.4758 39.1616 55 38.975V38.975ZM56.25 46.25C55.4763 46.2478 54.7222 46.0064 54.0912 45.5588C53.4601 45.1113 52.9829 44.4794 52.725 43.75H56.25C56.5815 43.75 56.8995 43.6183 57.1339 43.3839C57.3683 43.1495 57.5 42.8315 57.5 42.5V38.975C58.3267 39.275 59.0217 39.856 59.4635 40.6164C59.9052 41.3769 60.0657 42.2684 59.9168 43.1351C59.7678 44.0019 59.319 44.7887 58.6487 45.3581C57.9785 45.9275 57.1294 46.2432 56.25 46.25V46.25Z" fill="#454343"/>
</g>
<circle cx="50" cy="5" r="5" fill="#54E17F"/>
<circle cx="3" cy="28" r="3" fill="#54E17F"/>
<circle cx="18" cy="78" r="3" fill="#54E17F"/>
<defs>
<clipPath id="clip0_141_396">
<rect width="60" height="60" fill="white" transform="translate(10 15)"/>
</clipPath>
</defs>
</svg>
