<svg width="76" height="79" viewBox="0 0 76 79" fill="none" xmlns="http://www.w3.org/2000/svg">
<path d="M46.25 31.25C45.2554 31.25 44.3016 31.6451 43.5984 32.3484C42.8951 33.0516 42.5 34.0054 42.5 35V36.25H37.5V35C37.5 34.2583 37.2801 33.5333 36.868 32.9166C36.456 32.2999 35.8703 31.8193 35.1851 31.5355C34.4998 31.2516 33.7458 31.1774 33.0184 31.3221C32.291 31.4668 31.6228 31.8239 31.0984 32.3484C30.5739 32.8728 30.2168 33.541 30.0721 34.2684C29.9274 34.9958 30.0016 35.7498 30.2855 36.4351C30.5693 37.1203 31.0499 37.706 31.6666 38.118C32.2833 38.5301 33.0083 38.75 33.75 38.75H35.1125L36.1375 50C35.9274 50.019 35.7255 50.0908 35.5507 50.2089C35.3758 50.3269 35.2337 50.4873 35.1375 50.675L33.8875 53.175C33.7887 53.3657 33.7407 53.5787 33.7482 53.7934C33.7556 54.0081 33.8183 54.2172 33.9301 54.4006C34.0419 54.5841 34.1991 54.7356 34.3865 54.8405C34.5739 54.9455 34.7852 55.0004 35 55H45C45.2131 54.9994 45.4225 54.9443 45.6083 54.8399C45.794 54.7356 45.9501 54.5855 46.0616 54.4039C46.173 54.2223 46.2362 54.0152 46.2451 53.8023C46.254 53.5894 46.2084 53.3778 46.1125 53.1875L44.8625 50.6875C44.7663 50.4997 44.6242 50.3394 44.4493 50.2214C44.2745 50.1033 44.0726 50.0315 43.8625 50.0125L44.8875 38.7625H46.25C47.2446 38.7625 48.1984 38.3674 48.9017 37.6642C49.6049 36.9609 50 36.0071 50 35.0125C50 34.0179 49.6049 33.0641 48.9017 32.3609C48.1984 31.6576 47.2446 31.2625 46.25 31.2625V31.25ZM42.375 38.75L41.3625 50H38.6375L37.625 38.75H42.375ZM35 36.25H33.75C33.5028 36.25 33.2611 36.1767 33.0555 36.0393C32.85 35.902 32.6898 35.7068 32.5952 35.4784C32.5005 35.2499 32.4758 34.9986 32.524 34.7561C32.5723 34.5137 32.6913 34.2909 32.8661 34.1161C33.0409 33.9413 33.2637 33.8223 33.5061 33.774C33.7486 33.7258 33.9999 33.7505 34.2284 33.8452C34.4568 33.9398 34.652 34.1 34.7893 34.3055C34.9267 34.5111 35 34.7528 35 35V36.25ZM46.25 36.25H45V35C45 34.7528 45.0733 34.5111 45.2107 34.3055C45.348 34.1 45.5432 33.9398 45.7717 33.8452C46.0001 33.7505 46.2514 33.7258 46.4939 33.774C46.7363 33.8223 46.9591 33.9413 47.1339 34.1161C47.3087 34.2909 47.4278 34.5137 47.476 34.7561C47.5242 34.9986 47.4995 35.2499 47.4049 35.4784C47.3102 35.7068 47.15 35.902 46.9445 36.0393C46.7389 36.1767 46.4972 36.25 46.25 36.25Z" fill="#454343"/>
<path d="M38.75 64.6C36.5089 64.7957 34.3562 65.5664 32.5 66.8375V58.75H38.75V64.6Z" fill="#54E17F"/>
<path d="M46.0999 68.9001L39.9999 75.0001L33.8999 68.9001C35.6959 67.6687 37.8224 67.0098 39.9999 67.0098C42.1774 67.0098 44.304 67.6687 46.0999 68.9001Z" fill="#54E17F"/>
<path d="M47.5 58.75V66.8375C45.6473 65.5597 43.4927 64.7884 41.25 64.6V58.75H47.5Z" fill="#54E17F"/>
<path d="M50 53.75H30V58.75H50V53.75Z" fill="#454343"/>
<path d="M17.5 35H13.75C13.4185 35 13.1005 34.8683 12.8661 34.6339C12.6317 34.3995 12.5 34.0815 12.5 33.75C12.5 33.4185 12.6317 33.1005 12.8661 32.8661C13.1005 32.6317 13.4185 32.5 13.75 32.5H17.5C17.8315 32.5 18.1495 32.6317 18.3839 32.8661C18.6183 33.1005 18.75 33.4185 18.75 33.75C18.75 34.0815 18.6183 34.3995 18.3839 34.6339C18.1495 34.8683 17.8315 35 17.5 35Z" fill="#545458"/>
<path d="M17.6 49.375C17.3233 49.377 17.0537 49.287 16.8336 49.1192C16.6134 48.9514 16.4552 48.7153 16.3837 48.4479C16.3122 48.1806 16.3315 47.897 16.4385 47.6418C16.5455 47.3865 16.7342 47.174 16.975 47.0375L20.225 45.1625C20.3679 45.0805 20.5254 45.0273 20.6888 45.0061C20.8521 44.985 21.0181 44.9962 21.1771 45.0391C21.3361 45.0821 21.4851 45.1559 21.6156 45.2564C21.7461 45.357 21.8555 45.4822 21.9376 45.625C22.0196 45.7678 22.0728 45.9254 22.0939 46.0888C22.1151 46.2521 22.1039 46.418 22.061 46.5771C22.018 46.7361 21.9442 46.8851 21.8436 47.0156C21.7431 47.1461 21.6179 47.2555 21.4751 47.3375C17.9 49.3875 18.05 49.375 17.6 49.375Z" fill="#545458"/>
<path d="M20.85 22.5C20.4 22.5 20.55 22.5 16.975 20.4625C16.6866 20.2968 16.4758 20.0232 16.3891 19.7021C16.3024 19.3809 16.3468 19.0385 16.5125 18.75C16.6783 18.4616 16.9518 18.2509 17.273 18.1641C17.5941 18.0774 17.9366 18.1218 18.225 18.2875L21.475 20.1625C21.7158 20.299 21.9045 20.5115 22.0115 20.7668C22.1186 21.022 22.1378 21.3056 22.0663 21.5729C21.9948 21.8403 21.8366 22.0764 21.6165 22.2442C21.3964 22.412 21.1268 22.502 20.85 22.5V22.5Z" fill="#545458"/>
<path d="M66.25 35H62.5C62.1685 35 61.8505 34.8683 61.6161 34.6339C61.3817 34.3995 61.25 34.0815 61.25 33.75C61.25 33.4185 61.3817 33.1005 61.6161 32.8661C61.8505 32.6317 62.1685 32.5 62.5 32.5H66.25C66.5815 32.5 66.8995 32.6317 67.1339 32.8661C67.3683 33.1005 67.5 33.4185 67.5 33.75C67.5 34.0815 67.3683 34.3995 67.1339 34.6339C66.8995 34.8683 66.5815 35 66.25 35Z" fill="#545458"/>
<path d="M62.3998 49.375C61.9498 49.375 62.0998 49.375 58.5248 47.3375C58.2364 47.1718 58.0256 46.8982 57.9389 46.5771C57.8522 46.2559 57.8966 45.9135 58.0623 45.625C58.2281 45.3366 58.5016 45.1259 58.8228 45.0391C59.1439 44.9524 59.4864 44.9968 59.7748 45.1625L63.0248 47.0375C63.2656 47.174 63.4543 47.3865 63.5613 47.6418C63.6684 47.897 63.6876 48.1806 63.6161 48.448C63.5446 48.7153 63.3864 48.9514 63.1663 49.1192C62.9462 49.287 62.6766 49.377 62.3998 49.375Z" fill="#545458"/>
<path d="M59.1499 22.5C58.8731 22.502 58.6035 22.412 58.3834 22.2442C58.1632 22.0764 58.005 21.8403 57.9335 21.5729C57.862 21.3056 57.8813 21.022 57.9883 20.7668C58.0953 20.5115 58.284 20.299 58.5249 20.1625L61.7748 18.2875C62.0633 18.1218 62.4057 18.0774 62.7269 18.1641C63.048 18.2509 63.3216 18.4616 63.4874 18.75C63.6531 19.0385 63.6975 19.3809 63.6108 19.7021C63.524 20.0232 63.3133 20.2968 63.0248 20.4625C59.4498 22.5 59.5999 22.5 59.1499 22.5Z" fill="#545458"/>
<path d="M58.5873 31.25C58.1717 28.1986 57.011 25.2966 55.2076 22.8003C53.4043 20.304 51.0138 18.2903 48.2475 16.9372C45.4812 15.584 42.4242 14.9331 39.3465 15.0419C36.2689 15.1506 33.2655 16.0158 30.6016 17.5608C27.9377 19.1059 25.6954 21.2833 24.0727 23.9007C22.4501 26.518 21.4971 29.4948 21.298 32.5679C21.0989 35.641 21.6598 38.7158 22.9311 41.5207C24.2024 44.3255 26.145 46.7741 28.5873 48.65C29.1045 49.0554 29.4413 49.6481 29.5248 50.3L29.8123 52.55C29.5227 52.5938 29.2576 52.738 29.0634 52.9573C28.8692 53.1766 28.7582 53.4572 28.7498 53.75V58.75C28.7498 59.0815 28.8815 59.3995 29.1159 59.6339C29.3503 59.8683 29.6683 60 29.9998 60H49.9998C50.3313 60 50.6493 59.8683 50.8837 59.6339C51.1181 59.3995 51.2498 59.0815 51.2498 58.75V53.75C51.2524 53.4448 51.1432 53.1492 50.9429 52.9189C50.7426 52.6887 50.4649 52.5397 50.1623 52.5L50.4498 50.25C50.4852 49.9318 50.5842 49.6239 50.7409 49.3448C50.8977 49.0656 51.109 48.8208 51.3623 48.625C54.0007 46.6311 56.0606 43.9706 57.3304 40.917C58.6002 37.8634 59.034 34.5268 58.5873 31.25V31.25ZM48.7498 57.5H31.2498V55H48.7498V57.5ZM49.8373 46.675C47.8998 48.15 47.9498 50.0625 47.6498 52.5H32.3498C32.0498 50.0625 32.0998 48.1625 30.1373 46.65C27.31 44.4848 25.2723 41.4508 24.3374 38.0145C23.4026 34.5783 23.6224 30.9301 24.9631 27.631C26.3038 24.3319 28.691 21.5645 31.7578 19.7544C34.8246 17.9443 38.4011 17.1918 41.9373 17.6125C45.504 18.0531 48.826 19.6575 51.3886 22.1772C53.9512 24.6969 55.6115 27.9912 56.1123 31.55C56.5068 34.4014 56.1333 37.3064 55.0302 39.9652C53.9271 42.624 52.1345 44.9403 49.8373 46.675V46.675Z" fill="#545458"/>
<circle cx="71" cy="74" r="5" fill="#54E17F"/>
<circle cx="3" cy="61" r="3" fill="#54E17F"/>
<circle cx="40" cy="3" r="3" fill="#54E17F"/>
</svg>
