<svg width="73" height="62" viewBox="0 0 73 62" fill="none" xmlns="http://www.w3.org/2000/svg">
<path d="M37.75 23.9625V21.25C37.75 20.9185 37.6183 20.6005 37.3839 20.3661C37.1495 20.1317 36.8315 20 36.5 20H32.75C32.4185 20 32.1005 20.1317 31.8661 20.3661C31.6317 20.6005 31.5 20.9185 31.5 21.25C31.5 21.5815 31.3683 21.8995 31.1339 22.1339C30.8995 22.3683 30.5815 22.5 30.25 22.5C29.9185 22.5 29.6005 22.3683 29.3661 22.1339C29.1317 21.8995 29 21.5815 29 21.25C29 20.9185 28.8683 20.6005 28.6339 20.3661C28.3995 20.1317 28.0815 20 27.75 20H22.75C22.4185 20 22.1005 20.1317 21.8661 20.3661C21.6317 20.6005 21.5 20.9185 21.5 21.25C21.5 25.2282 23.0804 29.0436 25.8934 31.8566C28.7064 34.6696 32.5218 36.25 36.5 36.25C36.8315 36.25 37.1495 36.1183 37.3839 35.8839C37.6183 35.6495 37.75 35.3315 37.75 35V31.0375C38.4825 30.7798 39.1169 30.3011 39.5657 29.6675C40.0145 29.0338 40.2556 28.2765 40.2556 27.5C40.2556 26.7235 40.0145 25.9662 39.5657 25.3325C39.1169 24.6989 38.4825 24.2202 37.75 23.9625Z" fill="#54E17F"/>
<path d="M47.75 60H27.75C27.4184 60 27.1005 59.8683 26.8661 59.6339C26.6317 59.3995 26.5 59.0815 26.5 58.75V51.25H20.25C18.9239 51.25 17.6521 50.7232 16.7144 49.7855C15.7767 48.8479 15.25 47.5761 15.25 46.25V38.75H11.5C11.2915 38.7496 11.0864 38.697 10.9034 38.5971C10.7204 38.4971 10.5654 38.353 10.4523 38.1778C10.3392 38.0027 10.2718 37.802 10.2561 37.5941C10.2404 37.3862 10.277 37.1777 10.3625 36.9875L15.25 25.9875V21.25C15.25 15.6141 17.4888 10.2091 21.4739 6.22398C25.4591 2.23883 30.8641 0 36.5 0C42.1358 0 47.5408 2.23883 51.526 6.22398C55.5111 10.2091 57.75 15.6141 57.75 21.25V24.575C57.72 32.4275 55.0818 40.0475 50.25 46.2375C49.4204 47.3432 48.9808 48.6928 49 50.075V58.75C49 59.0815 48.8683 59.3995 48.6338 59.6339C48.3994 59.8683 48.0815 60 47.75 60ZM29 57.5H46.5V50.075C46.4977 48.1288 47.1443 46.2375 48.3375 44.7C52.8082 38.943 55.2397 31.864 55.25 24.575V21.25C55.25 16.2772 53.2745 11.5081 49.7582 7.99175C46.2419 4.47544 41.4728 2.5 36.5 2.5C31.5271 2.5 26.758 4.47544 23.2417 7.99175C19.7254 11.5081 17.75 16.2772 17.75 21.25V26.25C17.75 26.6375 17.9625 26.0375 13.425 36.25H16.5C16.8315 36.25 17.1494 36.3817 17.3838 36.6161C17.6183 36.8505 17.75 37.1685 17.75 37.5V46.25C17.75 46.913 18.0134 47.5489 18.4822 48.0178C18.951 48.4866 19.5869 48.75 20.25 48.75H27.75C28.0815 48.75 28.3994 48.8817 28.6338 49.1161C28.8683 49.3505 29 49.6685 29 50V57.5Z" fill="#545458"/>
<path d="M34 15C34 15.663 34.2634 16.2989 34.7322 16.7678C35.2011 17.2366 35.837 17.5 36.5 17.5V21.25H32.75C32.75 21.913 32.4866 22.5489 32.0178 23.0178C31.5489 23.4866 30.913 23.75 30.25 23.75C29.587 23.75 28.9511 23.4866 28.4822 23.0178C28.0134 22.5489 27.75 21.913 27.75 21.25H22.75C22.75 17.6033 24.1987 14.1059 26.7773 11.5273C29.3559 8.94866 32.8533 7.5 36.5 7.5V12.5C35.837 12.5 35.2011 12.7634 34.7322 13.2322C34.2634 13.7011 34 14.337 34 15Z" fill="#454343"/>
<path d="M50.25 21.25C50.25 24.8967 48.8013 28.3941 46.2227 30.9727C43.6441 33.5513 40.1467 35 36.5 35V30C37.163 30 37.7989 29.7366 38.2678 29.2678C38.7366 28.7989 39 28.163 39 27.5C39 26.837 38.7366 26.2011 38.2678 25.7322C37.7989 25.2634 37.163 25 36.5 25V21.25H40.25C40.25 20.587 40.5134 19.9511 40.9822 19.4822C41.4511 19.0134 42.087 18.75 42.75 18.75C43.413 18.75 44.0489 19.0134 44.5178 19.4822C44.9866 19.9511 45.25 20.587 45.25 21.25H50.25Z" fill="#454343"/>
<path d="M36.5 6.25C32.5218 6.25 28.7064 7.83035 25.8934 10.6434C23.0804 13.4564 21.5 17.2718 21.5 21.25C21.5 21.5815 21.6317 21.8995 21.8661 22.1339C22.1005 22.3683 22.4185 22.5 22.75 22.5H26.7125C26.9702 23.2325 27.4489 23.8669 28.0825 24.3157C28.7162 24.7645 29.4735 25.0056 30.25 25.0056C31.0265 25.0056 31.7838 24.7645 32.4175 24.3157C33.0511 23.8669 33.5298 23.2325 33.7875 22.5H35.25V25C35.25 25.3315 35.3817 25.6495 35.6161 25.8839C35.8505 26.1183 36.1685 26.25 36.5 26.25C36.8315 26.25 37.1495 26.3817 37.3839 26.6161C37.6183 26.8505 37.75 27.1685 37.75 27.5C37.75 27.8315 37.6183 28.1495 37.3839 28.3839C37.1495 28.6183 36.8315 28.75 36.5 28.75C36.1685 28.75 35.8505 28.8817 35.6161 29.1161C35.3817 29.3505 35.25 29.6685 35.25 30V35C35.25 35.3315 35.3817 35.6495 35.6161 35.8839C35.8505 36.1183 36.1685 36.25 36.5 36.25C40.4782 36.25 44.2936 34.6696 47.1066 31.8566C49.9196 29.0436 51.5 25.2282 51.5 21.25C51.5 17.2718 49.9196 13.4564 47.1066 10.6434C44.2936 7.83035 40.4782 6.25 36.5 6.25V6.25ZM37.75 12.5V8.8125C40.6398 9.08956 43.3431 10.3638 45.3959 12.4166C47.4487 14.4694 48.7229 17.1727 49 20.0625H46.2875C46.0298 19.33 45.5511 18.6956 44.9175 18.2468C44.2838 17.798 43.5265 17.5569 42.75 17.5569C41.9735 17.5569 41.2162 17.798 40.5825 18.2468C39.9489 18.6956 39.4702 19.33 39.2125 20.0625H37.75V17.5C37.75 17.1685 37.6183 16.8505 37.3839 16.6161C37.1495 16.3817 36.8315 16.25 36.5 16.25C36.1685 16.25 35.8505 16.1183 35.6161 15.8839C35.3817 15.6495 35.25 15.3315 35.25 15C35.25 14.6685 35.3817 14.3505 35.6161 14.1161C35.8505 13.8817 36.1685 13.75 36.5 13.75C36.8315 13.75 37.1495 13.6183 37.3839 13.3839C37.6183 13.1495 37.75 12.8315 37.75 12.5ZM32.75 20C32.4185 20 32.1005 20.1317 31.8661 20.3661C31.6317 20.6005 31.5 20.9185 31.5 21.25C31.5 21.5815 31.3683 21.8995 31.1339 22.1339C30.8995 22.3683 30.5815 22.5 30.25 22.5C29.9185 22.5 29.6005 22.3683 29.3661 22.1339C29.1317 21.8995 29 21.5815 29 21.25C29 20.9185 28.8683 20.6005 28.6339 20.3661C28.3995 20.1317 28.0815 20 27.75 20H24.0625C24.3532 17.1214 25.6335 14.4328 27.6851 12.3926C29.7366 10.3525 32.4323 9.08718 35.3125 8.8125V11.4625C34.58 11.7202 33.9456 12.1989 33.4968 12.8325C33.048 13.4662 32.8069 14.2235 32.8069 15C32.8069 15.7765 33.048 16.5338 33.4968 17.1675C33.9456 17.8011 34.58 18.2798 35.3125 18.5375V20H32.75ZM37.75 33.75V31.0375C38.4825 30.7798 39.1169 30.3011 39.5657 29.6675C40.0145 29.0338 40.2556 28.2765 40.2556 27.5C40.2556 26.7235 40.0145 25.9662 39.5657 25.3325C39.1169 24.6989 38.4825 24.2202 37.75 23.9625V22.5H40.25C40.5815 22.5 40.8995 22.3683 41.1339 22.1339C41.3683 21.8995 41.5 21.5815 41.5 21.25C41.5 20.9185 41.6317 20.6005 41.8661 20.3661C42.1005 20.1317 42.4185 20 42.75 20C43.0815 20 43.3995 20.1317 43.6339 20.3661C43.8683 20.6005 44 20.9185 44 21.25C44 21.5815 44.1317 21.8995 44.3661 22.1339C44.6005 22.3683 44.9185 22.5 45.25 22.5H49C48.7229 25.3898 47.4487 28.0931 45.3959 30.1459C43.3431 32.1987 40.6398 33.4729 37.75 33.75V33.75Z" fill="#545458"/>
<circle cx="5" cy="57" r="5" fill="#54E17F"/>
<circle cx="10" cy="3" r="3" fill="#54E17F"/>
<circle cx="70" cy="38" r="3" fill="#54E17F"/>
</svg>
