<svg width="76" height="65" viewBox="0 0 76 65" fill="none" xmlns="http://www.w3.org/2000/svg">
<g clip-path="url(#clip0_141_402)">
<path d="M68.75 41.25V48.75C68.75 49.413 68.4866 50.0489 68.0178 50.5178C67.5489 50.9866 66.913 51.25 66.25 51.25H13.75C13.087 51.25 12.4511 50.9866 11.9822 50.5178C11.5134 50.0489 11.25 49.413 11.25 48.75V41.25H68.75Z" fill="#454343"/>
<path d="M66.25 5H13.75C12.7554 5 11.8016 5.39509 11.0983 6.09835C10.3951 6.80161 10 7.75544 10 8.75V48.75C10 49.7446 10.3951 50.6984 11.0983 51.4016C11.8016 52.1049 12.7554 52.5 13.75 52.5H32.275L31.4375 57.5H30C29.6685 57.5 29.3505 57.6317 29.1161 57.8661C28.8817 58.1005 28.75 58.4185 28.75 58.75C28.75 59.0815 28.8817 59.3995 29.1161 59.6339C29.3505 59.8683 29.6685 60 30 60H50C50.3315 60 50.6495 59.8683 50.8839 59.6339C51.1183 59.3995 51.25 59.0815 51.25 58.75C51.25 58.4185 51.1183 58.1005 50.8839 57.8661C50.6495 57.6317 50.3315 57.5 50 57.5H48.5625L47.725 52.5H66.25C67.2446 52.5 68.1984 52.1049 68.9016 51.4016C69.6049 50.6984 70 49.7446 70 48.75V8.75C70 7.75544 69.6049 6.80161 68.9016 6.09835C68.1984 5.39509 67.2446 5 66.25 5V5ZM13.75 7.5H66.25C66.5815 7.5 66.8995 7.6317 67.1339 7.86612C67.3683 8.10054 67.5 8.41848 67.5 8.75V40H12.5V8.75C12.5 8.41848 12.6317 8.10054 12.8661 7.86612C13.1005 7.6317 13.4185 7.5 13.75 7.5V7.5ZM46.025 57.5H33.975L34.8125 52.5H45.1875L46.025 57.5ZM66.25 50H13.75C13.4185 50 13.1005 49.8683 12.8661 49.6339C12.6317 49.3995 12.5 49.0815 12.5 48.75V42.5H67.5V48.75C67.5 49.0815 67.3683 49.3995 67.1339 49.6339C66.8995 49.8683 66.5815 50 66.25 50Z" fill="#545458"/>
<path d="M40 47.5C40.6904 47.5 41.25 46.9404 41.25 46.25C41.25 45.5596 40.6904 45 40 45C39.3096 45 38.75 45.5596 38.75 46.25C38.75 46.9404 39.3096 47.5 40 47.5Z" fill="#545458"/>
<path d="M27.8625 32.8625L27.5 33.2375V28.75C27.5 28.4185 27.3683 28.1005 27.1339 27.8661C26.8995 27.6317 26.5815 27.5 26.25 27.5C25.9185 27.5 25.6005 27.6317 25.3661 27.8661C25.1317 28.1005 25 28.4185 25 28.75V33.2375L24.6375 32.8625C24.5209 32.746 24.3826 32.6535 24.2303 32.5904C24.078 32.5273 23.9148 32.4949 23.75 32.4949C23.5852 32.4949 23.422 32.5273 23.2697 32.5904C23.1174 32.6535 22.979 32.746 22.8625 32.8625C22.7459 32.979 22.6535 33.1174 22.5904 33.2697C22.5273 33.422 22.4949 33.5852 22.4949 33.75C22.4949 33.9148 22.5273 34.078 22.5904 34.2303C22.6535 34.3826 22.7459 34.521 22.8625 34.6375C25.475 37.2375 25.4375 37.2625 25.775 37.4C25.9242 37.4677 26.0861 37.5027 26.25 37.5027C26.4138 37.5027 26.5758 37.4677 26.725 37.4C27.0375 37.275 26.8875 37.4 29.6375 34.6375C29.8729 34.4021 30.0051 34.0829 30.0051 33.75C30.0051 33.4171 29.8729 33.0979 29.6375 32.8625C29.4021 32.6271 29.0829 32.4949 28.75 32.4949C28.4171 32.4949 28.0979 32.6271 27.8625 32.8625V32.8625Z" fill="#454343"/>
<path d="M57.1375 32.8625C57.0213 32.7453 56.883 32.6523 56.7307 32.5889C56.5784 32.5254 56.415 32.4928 56.25 32.4928C56.085 32.4928 55.9216 32.5254 55.7693 32.5889C55.6169 32.6523 55.4787 32.7453 55.3625 32.8625L55 33.2375V28.75C55 28.4185 54.8683 28.1005 54.6339 27.8661C54.3994 27.6317 54.0815 27.5 53.75 27.5C53.4185 27.5 53.1005 27.6317 52.8661 27.8661C52.6317 28.1005 52.5 28.4185 52.5 28.75V33.2375L52.1375 32.8625C51.9021 32.6271 51.5829 32.4949 51.25 32.4949C50.9171 32.4949 50.5979 32.6271 50.3625 32.8625C50.1271 33.0979 49.9949 33.4171 49.9949 33.75C49.9949 34.0829 50.1271 34.4021 50.3625 34.6375L52.8625 37.1375C52.9787 37.2547 53.1169 37.3477 53.2693 37.4111C53.4216 37.4746 53.585 37.5072 53.75 37.5072C53.915 37.5072 54.0784 37.4746 54.2307 37.4111C54.383 37.3477 54.5213 37.2547 54.6375 37.1375L57.1375 34.6375C57.2546 34.5213 57.3476 34.383 57.4111 34.2307C57.4746 34.0784 57.5072 33.915 57.5072 33.75C57.5072 33.585 57.4746 33.4216 57.4111 33.2693C57.3476 33.117 57.2546 32.9787 57.1375 32.8625V32.8625Z" fill="#454343"/>
<path d="M48.7129 5.35584C48.6928 5.21544 48.5725 5.1351 48.4721 5.1351C48.3717 5.1351 46.3831 5.09507 46.3831 5.09507C46.3831 5.09507 44.7163 3.49096 44.5557 3.31026C44.3949 3.14985 44.0735 3.19016 43.9532 3.23019C43.9532 3.23019 43.6318 3.33028 43.1096 3.49069C43.029 3.20991 42.8886 2.86907 42.7079 2.50794C42.1252 1.38507 41.2419 0.783457 40.1974 0.783457C40.1168 0.783457 40.0567 0.783457 39.9764 0.803475C39.9361 0.763439 39.9163 0.723403 39.876 0.703118C39.4142 0.221886 38.8315 -0.0188643 38.1289 0.00115367C36.7831 0.0411897 35.4374 1.02394 34.3328 2.74869C33.5697 3.97193 32.9873 5.49623 32.8066 6.67943C31.26 7.16066 30.1753 7.5015 30.1353 7.5015C29.3521 7.74225 29.3319 7.76227 29.2315 8.50454C29.1915 9.06584 27.1428 24.8891 27.1428 24.8891L44.3347 27.8571L51.7857 26.0123C51.7658 26.0123 48.7331 5.49623 48.7129 5.35584V5.35584ZM42.2461 3.77148C41.8444 3.89185 41.4024 4.03225 40.9205 4.19266C40.9205 3.51071 40.8201 2.54824 40.5188 1.74592C41.5431 1.90633 42.0452 3.06978 42.2461 3.77175V3.77148ZM40.0167 4.45342C39.06 4.74971 38.1026 5.04385 37.1445 5.33582C37.4259 4.273 37.9479 3.22992 38.5907 2.52796C38.8318 2.26746 39.1733 1.98667 39.5546 1.826C39.9563 2.6083 40.0368 3.71142 40.0164 4.45342H40.0167ZM38.1689 0.903565C38.4903 0.903565 38.7515 0.963886 38.9722 1.1243C38.6108 1.30473 38.2491 1.58551 37.9277 1.94637C37.0642 2.86907 36.4016 4.29301 36.1403 5.67666C35.3171 5.93743 34.5137 6.17818 33.7907 6.39864C34.2726 4.21268 36.1003 0.963886 38.1689 0.903565V0.903565Z" fill="#54E17F"/>
<path d="M48.4501 5.13942C48.349 5.13942 46.3475 5.09939 46.3475 5.09939C46.3475 5.09939 44.67 3.49503 44.5081 3.31463C44.4475 3.25459 44.3667 3.21429 44.2856 3.21429V27.8572L51.7856 26.0126C51.7856 26.0126 48.7331 5.50021 48.7128 5.35984C48.6722 5.21948 48.5512 5.13942 48.4501 5.13942Z" fill="#3CAB5E"/>
<path d="M40 8.85934L39.1267 11.986C39.1267 11.986 38.1519 11.5588 36.994 11.6363C35.2878 11.7335 35.2878 12.7626 35.2878 13.0151C35.3894 14.4133 39.228 14.724 39.4518 18.0057C39.6141 20.5886 38.0299 22.3556 35.7144 22.4916C32.952 22.6275 31.4286 21.074 31.4286 21.074L32.0176 18.6854C32.0176 18.6854 33.5613 19.7924 34.78 19.7146C35.5721 19.6758 35.8768 19.0348 35.8364 18.6079C35.7142 16.7825 32.5862 16.8991 32.3831 13.8889C32.2207 11.3644 33.9472 8.82083 37.7657 8.58771C39.2484 8.49054 40 8.8596 40 8.8596V8.85934Z" fill="white"/>
</g>
<circle cx="5" cy="60" r="5" fill="#54E17F"/>
<circle cx="3" cy="3" r="3" fill="#54E17F"/>
<circle cx="73" cy="16" r="3" fill="#54E17F"/>
<defs>
<clipPath id="clip0_141_402">
<rect width="60" height="60" fill="white" transform="translate(10)"/>
</clipPath>
</defs>
</svg>
