<svg width="552" height="216" viewBox="0 0 552 216" fill="none" xmlns="http://www.w3.org/2000/svg">
<path fill-rule="evenodd" clip-rule="evenodd" d="M0.770996 175.205V138.717L86.6858 3.36362H143.677V136.702H168.933V175.205H143.677V211H98.5125V175.205H0.770996ZM100.512 173.205V209H141.677V173.205H166.933V138.702H141.677V5.36362H87.7852L2.771 139.298V173.205H100.512ZM101.308 52.2954H99.717L46.1233 137.111V138.702H101.308V52.2954ZM99.3079 136.702V56.6869L48.7476 136.702H99.3079ZM275.463 215.474H275.455C258.016 215.407 242.899 211.109 230.193 202.502L230.189 202.5C217.558 193.897 207.886 181.468 201.132 165.326L201.129 165.319C194.44 149.171 191.166 129.837 191.233 107.375C191.233 84.9833 194.541 65.782 201.232 49.8314L201.235 49.8248C207.992 33.8772 217.67 21.6457 230.307 13.2436C243.012 4.77436 258.094 0.579529 275.463 0.579529C292.831 0.579529 307.881 4.77382 320.521 13.245C333.221 21.7114 342.931 33.9733 349.689 49.9214C356.452 65.8133 359.76 84.9895 359.693 107.387C359.692 129.91 356.351 149.275 349.596 165.422C342.909 181.566 333.269 193.995 320.637 202.599C307.993 211.21 292.904 215.474 275.463 215.474ZM347.75 164.653C354.378 148.811 357.693 129.72 357.693 107.381C357.759 85.1742 354.478 66.2822 347.849 50.7045C341.22 35.0606 331.741 23.1288 319.412 14.9091C307.148 6.68938 292.499 2.57953 275.463 2.57953C258.427 2.57953 243.744 6.68938 231.414 14.9091C219.151 23.0625 209.705 34.9612 203.076 50.6051C196.514 66.249 193.233 85.1742 193.233 107.381C193.166 129.653 196.414 148.711 202.977 164.554C209.606 180.397 219.052 192.494 231.315 200.847C243.645 209.199 258.36 213.408 275.463 213.474C292.565 213.474 307.248 209.298 319.511 200.946C331.774 192.594 341.187 180.496 347.75 164.653ZM311.744 107.386L311.744 107.381C311.744 92.0566 310.164 79.4123 307.061 69.3928L307.057 69.3815C304.009 59.3275 299.721 51.972 294.312 47.1226L294.304 47.115C288.974 42.2811 282.726 39.8778 275.463 39.8778C264.693 39.8778 256.007 45.191 249.337 56.3074C242.651 67.4502 239.148 84.3873 239.082 107.386C239.082 122.906 240.629 135.753 243.67 145.978C246.785 156.166 251.107 163.622 256.519 168.539C261.918 173.376 268.202 175.778 275.463 175.778C286.292 175.778 295.011 170.406 301.683 159.159C308.37 147.886 311.81 130.719 311.744 107.386ZM255.179 170.023C249.412 164.786 244.937 156.964 241.755 146.557C238.64 136.083 237.082 123.025 237.082 107.381C237.148 84.2462 240.662 66.8788 247.622 55.2784C254.582 43.678 263.862 37.8778 275.463 37.8778C283.218 37.8778 289.947 40.4631 295.647 45.6335C301.414 50.804 305.856 58.5265 308.971 68.8011C312.153 79.0757 313.744 91.9356 313.744 107.381C313.81 130.847 310.363 148.446 303.403 160.179C296.443 171.912 287.129 177.778 275.463 177.778C267.707 177.778 260.946 175.193 255.179 170.023ZM383.31 175.205V138.717L469.225 3.36362H526.216V136.702H551.472V175.205H526.216V211H481.052V175.205H383.31ZM483.052 173.205V209H524.216V173.205H549.472V138.702H524.216V5.36362H470.324L385.31 139.298V173.205H483.052ZM483.847 52.2954H482.256L428.662 137.111V138.702H483.847V52.2954ZM481.847 136.702V56.6869L431.287 136.702H481.847Z" fill="#54E17F"/>
</svg>
