<svg width="22" height="22" viewBox="0 0 22 22" fill="none" xmlns="http://www.w3.org/2000/svg">
<path fill-rule="evenodd" clip-rule="evenodd" d="M0.295661 0.295594C-0.0984627 0.689718 -0.0984633 1.32872 0.295661 1.72285L9.57275 11L0.295593 20.2771C-0.0985311 20.6713 -0.0985309 21.3103 0.295593 21.7044C0.689717 22.0985 1.32872 22.0985 1.72284 21.7044L11 12.4272L20.2772 21.7044C20.6713 22.0985 21.3103 22.0985 21.7044 21.7044C22.0985 21.3103 22.0985 20.6713 21.7044 20.2771L12.4273 11L21.7043 1.72285C22.0985 1.32873 22.0985 0.689725 21.7043 0.2956C21.3102 -0.098525 20.6712 -0.0985256 20.2771 0.295599L11 9.5727L1.72291 0.295593C1.32879 -0.0985313 0.689785 -0.0985311 0.295661 0.295594Z" fill="white"/>
</svg>
