<svg width="191" height="24" viewBox="0 0 191 24" fill="none" xmlns="http://www.w3.org/2000/svg">
<path d="M0 2.55682V0H17.8512V2.55682H10.3667V23.8017H7.48451V2.55682H0Z" fill="white"/>
<path d="M25.1818 0V23.8017H22.2995V0H25.1818Z" fill="white"/>
<path d="M49.8347 0V23.8017H47.0455L34.0754 5.11364H33.843V23.8017H30.9607V0H33.75L46.7665 18.7345H46.999V0H49.8347Z" fill="white"/>
<path d="M55.6021 23.8017V0H58.4843V11.8079H58.7632L69.4554 0H73.2209L63.226 10.7386L73.2209 23.8017H69.7343L61.4595 12.7376L58.4843 16.0847V23.8017H55.6021Z" fill="white"/>
<path d="M76.9515 23.8017V0H91.3162V2.55682H79.8337V10.5992H90.5724V13.156H79.8337V21.2448H91.5021V23.8017H76.9515Z" fill="white"/>
<path d="M96.5112 23.8017V0H104.554C106.413 0 107.939 0.317665 109.133 0.952995C110.326 1.58058 111.209 2.44447 111.782 3.54468C112.356 4.64489 112.642 5.89618 112.642 7.29855C112.642 8.70093 112.356 9.94447 111.782 11.0292C111.209 12.1139 110.33 12.9662 109.144 13.586C107.959 14.1981 106.444 14.5041 104.6 14.5041H98.0917V11.9008H104.507C105.778 11.9008 106.8 11.7149 107.575 11.343C108.358 10.9711 108.923 10.4442 109.272 9.7624C109.628 9.07283 109.807 8.25155 109.807 7.29855C109.807 6.34556 109.628 5.51265 109.272 4.79985C108.916 4.08704 108.346 3.53693 107.564 3.14954C106.781 2.75439 105.747 2.55682 104.461 2.55682H99.3934V23.8017H96.5112ZM107.715 13.1095L113.572 23.8017H110.225L104.461 13.1095H107.715Z" fill="white"/>
<path d="M117.445 23.8017V0H125.766C127.424 0 128.792 0.286674 129.869 0.860022C130.946 1.42562 131.748 2.18879 132.275 3.14954C132.802 4.10253 133.065 5.16012 133.065 6.32231C133.065 7.34504 132.883 8.18957 132.519 8.85589C132.162 9.52221 131.69 10.0491 131.101 10.4365C130.52 10.8239 129.888 11.1105 129.206 11.2965V11.5289C129.935 11.5754 130.667 11.8311 131.403 12.296C132.139 12.7608 132.755 13.4272 133.251 14.2949C133.747 15.1627 133.995 16.2242 133.995 17.4793C133.995 18.6725 133.724 19.7456 133.181 20.6986C132.639 21.6516 131.783 22.407 130.613 22.9649C129.443 23.5227 127.92 23.8017 126.045 23.8017H117.445ZM120.327 21.2448H126.045C127.928 21.2448 129.265 20.8807 130.055 20.1524C130.853 19.4163 131.252 18.5253 131.252 17.4793C131.252 16.6736 131.047 15.9298 130.636 15.2479C130.225 14.5584 129.64 14.0083 128.881 13.5976C128.122 13.1792 127.223 12.97 126.185 12.97H120.327V21.2448ZM120.327 10.4597H125.673C126.541 10.4597 127.324 10.2893 128.021 9.94835C128.726 9.60744 129.284 9.12707 129.695 8.50723C130.113 7.8874 130.322 7.15909 130.322 6.32231C130.322 5.27634 129.958 4.3892 129.23 3.6609C128.501 2.92484 127.347 2.55682 125.766 2.55682H120.327V10.4597Z" fill="white"/>
<path d="M138.731 23.8017V0H153.095V2.55682H141.613V10.5992H152.352V13.156H141.613V21.2448H153.281V23.8017H138.731Z" fill="white"/>
<path d="M158.29 23.8017V0H161.173V21.2448H172.237V23.8017H158.29Z" fill="white"/>
<path d="M176.699 23.8017V0H179.582V21.2448H190.646V23.8017H176.699Z" fill="white"/>
</svg>
