<svg width="236" height="70" viewBox="0 0 236 70" fill="none" xmlns="http://www.w3.org/2000/svg">
<path d="M34.9 17.3C34.9 19.7 34.7 21.4 34.3 22.4C33.9 23.4 32.9 25.3 31.3 28C29.6 30.8 28.5 32.5 27.9 33.2C27.5 33.7 26.4 33.9001 24.8 33.9001C23.4 33.9001 22.6 33.9 22.2 33.8C21.9 33.7 21.6 33.6 21.4 33.3C20.5 32.4 19.1 30.3001 17.3 26.9001C15.3 30.4001 14 32.6 13.3 33.3C12.9 33.7 11.9 33.9001 10.2 33.9001C9 33.9001 8.2 33.9 7.9 33.8C7.1 33.6 5.8 31.9 3.9 28.7C2.4 26.1 1.3 24 0.600002 22.5C0.200002 21.5 0 19.8 0 17.4C0 14.5 0.100001 12.7 0.200001 12.1C0.300001 11.7 0.6 11.5 1 11.5C1.7 11.5 2.8 11.5 4.2 11.6C5.6 11.7 6.7 11.7 7.4 11.7C7.8 11.7 7.9 12 7.9 12.5C7.9 13 7.9 13.6 7.9 14.6C7.9 15.6 7.9 16.2 7.9 16.7C7.9 18.6 7.9 20 8 20.9C8 21.2 8.4 22.1 9.3 23.5C10.1 24.9 10.6 25.6 10.8 25.6C11.1 25.6 11.6 24.9 12.3 23.5C12.9 22.3 13.3 21.5 13.5 20.9C13.7 20.3 13.8 18.9 13.8 16.7C13.8 16.2 13.8 15.5 13.7 14.6C13.6 13.7 13.7 12.8 13.7 12.3C13.7 11.8 13.9 11.6 14.2 11.6C14.6 11.6 15.5 11.6 16.8 11.6H17.8C17.8 11.6 17.8 11.6 17.7 11.6C17.6 11.6 17.6 11.6 17.7 11.6H17.9H18.5C19.1 11.6 20 11.6 21.1 11.6C21.4 11.6 21.6 11.9 21.6 12.3C21.6 12.9 21.6 13.8 21.5 15C21.4 16.2 21.4 17.1 21.4 17.7C21.4 19.3 21.5 20.3 21.6 20.7C21.8 21.2 22.1 22.1 22.7 23.3C23.4 24.7 23.9 25.4001 24.2 25.4001C24.5 25.4001 25 24.7 25.8 23.3C26.5 21.9 26.9 21 27 20.6C27.1 20 27.1 17.2 27.1 12.3C27.1 11.8 27.3 11.5 27.6 11.5C28.3 11.5 29.4 11.5 30.8 11.4C32.2 11.3 33.3 11.3 34 11.3C34.4 11.3 34.7 11.5 34.8 12C34.8 12.7 34.9 14.4 34.9 17.3Z" fill="#009FE3"/>
<path d="M58.6001 21C58.6001 22.6 58.1001 23.5 57.1001 23.7C56.9001 23.7 55.3001 23.9 52.2001 24.2C50.4001 24.4 47.6001 24.6 43.9001 24.9C44.1001 25.9 44.8001 26.7 45.9001 27.2C46.8001 27.6 47.8001 27.9 49.0001 27.9C50.4001 27.9 51.8001 27.5 53.2001 26.8C53.8001 26.4 54.4001 26 55.0001 25.7C55.3001 25.9 55.9001 26.7 56.7001 28.1C57.5001 29.5 57.9001 30.5 57.9001 30.8C57.9001 30.9 57.8001 31.1 57.5001 31.3C55.6001 33.3 52.6001 34.4 48.6001 34.4C44.9001 34.4 41.9001 33.3 39.6001 31.1C37.3001 28.9 36.1001 26 36.1001 22.3C36.1001 18.7 37.1001 15.8 39.2001 13.5C41.4001 11.1 44.2001 9.90002 47.8001 9.90002C50.8001 9.90002 53.3001 11 55.4001 13.2C57.5001 15.4 58.6001 18 58.6001 21ZM50.4001 19.5C50.4001 18.5 50.1001 17.7 49.4001 16.9C48.7001 16.1 47.9001 15.8 46.9001 15.8C45.9001 15.8 45.1001 16.2 44.5001 17C43.9001 17.8 43.6001 18.7 43.6001 19.7C43.6001 20.1 43.8001 20.3 44.3001 20.3C45.5001 20.3 47.3001 20.1 49.7001 19.8C50.2001 19.8 50.4001 19.7 50.4001 19.5Z" fill="#009FE3"/>
<path d="M86.0999 22.2C86.0999 25.5 85.2 28.2 83.3 30.4C81.3 32.7 78.7 33.9 75.5 33.9C73.2 33.9 71.2999 33.2 69.7999 31.9C69.6999 31.8 69.6 31.8 69.5 31.8C69.3 31.8 69.2 32.1 69.1 32.7C69 33.3 68.8 33.6 68.6 33.7C68.3 33.8 66.0999 33.8 61.8999 33.8C60.8999 33.8 60.3999 33.6 60.3999 33.3C60.3999 33.3 60.3999 33.1 60.3999 32.9C60.6999 30.4 60.8999 25.7 60.8999 18.7C60.8999 12 60.7 6.2 60.2 1.3V1C60.2 0.7 60.3999 0.599998 60.8999 0.599998C61.1999 0.599998 62.6 0.499997 65 0.199997C66.7 -3.05474e-06 68 0 69.1 0C69.4 0 69.5 0.299999 69.5 0.799999C69.5 1.4 69.4999 2.2 69.3999 3.2C69.2999 4.4 69.3 5.2 69.2 5.6C69.1 7.1 69.1 9.3 69.1 11.9C69.1 12.4 69.2 12.6 69.5 12.6C69.6 12.6 69.6999 12.5 69.8999 12.4C71.2999 10.9 73.1999 10.1 75.3999 10.1C78.7999 10.1 81.4999 11.3 83.3999 13.6C85.1999 15.9 86.0999 18.7 86.0999 22.2ZM77.5999 22C77.5999 20.7 77.1999 19.6 76.3999 18.7C75.5999 17.8 74.5999 17.4 73.2999 17.4C71.9999 17.4 71 17.8 70.2 18.7C69.4 19.6 69.1 20.7 69.1 22C69.1 23.4 69.5 24.5 70.2 25.3C71 26.2 71.9999 26.6 73.3999 26.6C74.6999 26.6 75.7999 26.1 76.5999 25.2C77.2999 24.5 77.5999 23.3 77.5999 22Z" fill="#009FE3"/>
<path d="M112.1 22C112.1 23.2 112.2 25 112.3 27.4C112.4 29.8 112.5 31.6 112.5 32.7C112.5 33.3 112.2 33.7 111.7 33.7C109.8 33.8 107.5 33.9 105 33.9C104.7 33.9 104.5 33.5 104.4 32.6C104.3 31.7 104.2 31.2 104 31.2C103.9 31.3 103.7 31.4 103.5 31.6C101.7 33.4 99.9 34.2 97.9 34.2C94.9 34.2 92.3 33 90.3 30.6C88.4 28.3 87.5 25.7 87.5 22.5C87.5 18.9 88.5 16 90.4 13.8C92.4 11.5 95.2 10.4 98.7 10.4C101.2 10.4 103.1 11.3 104.5 13C104.6 13.1 104.6 13.1 104.7 13.1C104.8 13.1 105 12.7 105.2 12C105.4 11.3 105.6 10.9 105.8 10.9C106.4 10.9 107.5 11.1 109.1 11.4C110.6 11.7 111.8 12 112.4 12.2C112.6 12.3 112.8 12.4 112.8 12.6C112.8 12.7 112.8 12.8 112.7 13.1C112.3 15.8 112.1 18.8 112.1 22ZM104.5 22.1C104.5 20.8 104.1 19.7 103.2 18.8C102.3 17.9 101.3 17.5 99.9 17.5C98.5 17.5 97.5 17.9 96.6 18.8C95.7 19.7 95.4 20.8 95.4 22.1C95.4 23.4 95.8 24.5 96.7 25.4C97.6 26.3 98.6 26.8 99.9 26.8C101.2 26.8 102.3 26.4 103.2 25.5C104.1 24.6 104.5 23.5 104.5 22.1Z" fill="black"/>
<path d="M139.6 27.6C139.6 32.1 138.7 35.2 136.8 37.2C134.9 39.2 131.6 40.2 127.1 40.2C125.8 40.2 124 40 121.7 39.6C118.8 39.1 117.4 38.4 117.4 37.7C117.4 37.4 117.7 35.9 118.4 33.1C118.5 32.7 118.7 32.4 118.9 32.4C119 32.4 119.1 32.4 119.2 32.5C121.6 33.7 123.8 34.3 125.9 34.3C127 34.3 128.1 34 129.3 33.5C130.6 32.8 131.3 32 131.3 31V29.4C129.7 30.9 127.7 31.7 125.2 31.7C122.3 31.7 119.8 30.6 118 28.5C116.2 26.5 115.3 24 115.3 21C115.3 18 116.2 15.5 117.9 13.6C119.7 11.6 122.1 10.5 125.1 10.5C127.5 10.5 129.3 11.3 130.5 13C130.8 13.3 130.9 13.5 131 13.5C131.1 13.5 131.2 13.2 131.2 12.7C131.2 11.4 131.3 10.8 131.6 10.8C131.9 10.8 133.2 10.9 135.7 11.2C138.2 11.5 139.4 11.6 139.5 11.6C139.8 11.7 139.9 11.9 139.9 12.2C139.9 13.3 139.9 14.9 139.8 17C139.7 19.1 139.7 20.8 139.7 21.8C139.7 22.4 139.7 23.4 139.7 24.7C139.6 26 139.6 27 139.6 27.6ZM131.5 21.1C131.5 20 131.1 19 130.4 18.1C129.7 17.2 128.7 16.8 127.6 16.8C126.5 16.8 125.5 17.2 124.8 18.1C124.1 19 123.7 19.9 123.7 21.1C123.7 22.3 124.1 23.2 124.9 24.1C125.7 24.9 126.6 25.3 127.7 25.3C128.8 25.3 129.8 24.9 130.5 24C131.1 23.2 131.5 22.3 131.5 21.1Z" fill="black"/>
<path d="M164.6 21C164.6 22.6 164.1 23.5 163.1 23.7C162.9 23.7 161.3 23.9 158.2 24.2C156.4 24.4 153.6 24.6 149.9 24.9C150.1 25.9 150.8 26.7 151.9 27.2C152.8 27.6 153.8 27.9 155 27.9C156.4 27.9 157.8 27.5 159.2 26.8C159.8 26.4 160.4 26 161 25.7C161.3 25.9 161.9 26.7 162.7 28.1C163.5 29.5 163.9 30.5 163.9 30.8C163.9 30.9 163.8 31.1 163.5 31.3C161.6 33.3 158.6 34.4 154.6 34.4C150.9 34.4 147.9 33.3 145.6 31.1C143.3 28.9 142.1 26 142.1 22.3C142.1 18.7 143.1 15.8 145.2 13.5C147.4 11.1 150.2 9.90002 153.8 9.90002C156.8 9.90002 159.3 11 161.4 13.2C163.5 15.4 164.6 18 164.6 21ZM156.4 19.5C156.4 18.5 156.1 17.7 155.4 16.9C154.7 16.1 153.9 15.8 152.9 15.8C151.9 15.8 151.1 16.2 150.5 17C149.9 17.8 149.6 18.7 149.6 19.7C149.6 20.1 149.8 20.3 150.3 20.3C151.5 20.3 153.3 20.1 155.7 19.8C156.2 19.8 156.4 19.7 156.4 19.5Z" fill="black"/>
<path d="M190 33C190 33.4 189.8 33.7 189.3 33.7C188.8 33.7 187.7 33.7999 185.9 33.7999C183.9 33.7999 182.7 33.8 182.2 33.7C181.7 33.6 181.5 33.3 181.5 32.7C181.5 32 181.5 30.9 181.6 29.4C181.7 27.9 181.7 26.8 181.7 26C181.7 25.4 181.7 24.6 181.7 23.4C181.7 22.3 181.7 21.4 181.7 20.8C181.7 18.7 180.8 17.6 178.9 17.6C178.3 17.6 177.6 17.9 176.8 18.4C175.9 19 175.5 19.6 175.5 20.2V32.9C175.5 33.4 175.3 33.6999 174.8 33.7999C174.3 33.8999 173.1 33.9 171.4 33.9C169.6 33.9 168.4 33.8999 167.8 33.7999C167.3 33.6999 167.1 33.5 167.1 33C167.1 31.8 167.1 29.9 167.1 27.5C167.1 25.1 167.1 23.2 167.1 22C167.1 18.1 166.8 15.1 166.2 12.8C166.2 12.7 166.2 12.5 166.2 12.4C166.2 12.1 166.3 12 166.6 11.9C167.6 11.8 168.9 11.6 170.5 11.4C173 10.9 174.4 10.7 174.7 10.7C174.9 10.7 175 11.2 175.1 12.3C175.2 13.4 175.3 13.9 175.5 13.9C175.3 13.9 176.2 13.4 178 12.3C179.8 11.2 181.5 10.7 182.9 10.7C184.9 10.7 186.5 11.2 187.9 12.1C189.4 13.2 190.1 14.7 190.1 16.6V24.1C190.1 25.1 190.1 26.6 190.1 28.7C190.1 30.8 190 32 190 33Z" fill="black"/>
<path d="M209 18.3C209 18.3 208.5 18.2 207.6 17.9C206.7 17.6 205.9 17.5 205.3 17.5C203.9 17.5 202.8 17.9 202 18.8C201.2 19.7 200.8 20.7 200.8 22.1C200.8 23.5 201.3 24.7 202.2 25.5C203.1 26.3 204.3 26.7 205.7 26.7C206.4 26.7 207.2 26.5 208 26.2C208.8 25.9 209.3 25.7 209.2 25.7C209.5 25.7 209.8 26.7 210.2 28.7C210.6 30.5 210.7 31.7 210.7 32.3C210.7 32.9 209.7 33.4 207.8 33.8C206.3 34.1 205.1 34.3 204.2 34.3C200.8 34.3 197.9 33.1 195.7 30.8C193.5 28.5 192.3 25.6 192.3 22.2C192.3 18.8 193.4 15.9 195.7 13.6C198 11.3 200.8 10.1 204.2 10.1C206.5 10.1 208.6 10.6 210.3 11.6C210.7 11.8 210.9 12 210.9 12.2C210.9 12.4 210.7 13.3 210.2 15C209.8 16.6 209.5 17.5 209.3 17.9C209.1 18.3 209.1 18.3 209 18.3Z" fill="black"/>
<path d="M236 17C236 20 235.9 21.9 235.7 22.5C235.5 23.3 233.8 26.1 230.6 31C230.1 31.8 228.8 33.5 226.7 36.3C224.4 39.4 223.1 41 222.8 41.2C222.4 41.4 220 41.6 215.6 41.6C214.9 41.6 214.5 41.5 214.2 41.4C214 40.8 213.7 40 213.4 39.1C213.1 38.6 212.9 38 212.6 37.4C212.2 36.6 212.1 36 212.1 35.8C212.1 35.5 212.2 35.4 212.5 35.4C216.8 35.4 219 34.4 219 32.4C219 32.2 217.9 30.7 215.8 27.7C213.6 24.7 212.4 22.8 212.2 22C212.1 21.5 212 19.9 212 17.1C212 16.5 212 15.7 212 14.6C212 13.5 212 12.6 212 12.1C212 11.7 212.3 11.5 212.8 11.5C213.6 11.5 214.8 11.5 216.4 11.6C218 11.7 219.2 11.7 220 11.7C220.3 11.7 220.5 11.9 220.5 12.4C220.5 12.8 220.5 13.5 220.4 14.4C220.3 15.3 220.3 15.9 220.3 16.4C220.3 18.4 220.3 19.7 220.4 20.4C220.4 20.9 220.9 22 221.8 23.4C222.7 24.9 223.4 25.7 223.8 25.7C224.2 25.7 224.8 24.9 225.6 23.4C226.4 21.9 226.8 21 226.9 20.5C227.1 19.1 227.1 17.6 227.1 16C227.1 15.6 227.1 14.9 227 14.1C226.9 13.3 226.9 12.6 226.9 12.2C226.9 11.9 227.1 11.8 227.4 11.8C228.2 11.8 229.4 11.8 231 11.7C232.6 11.6 233.8 11.6 234.6 11.6C235 11.6 235.3 11.8 235.4 12.2C235.8 12.7 236 14.4 236 17Z" fill="black"/>
<path d="M18.4001 65.1001C17.0001 65.1001 16.0001 64.6001 15.2001 63.6001C14.4001 62.6001 14.1001 61.2001 14.1001 59.3001C14.1001 57.5001 14.5001 56.0001 15.2001 55.0001C16.0001 54.0001 17.0001 53.5001 18.4001 53.5001C19.2001 53.5001 19.8001 53.7001 20.2001 54.0001C20.6001 54.4001 20.9001 54.9001 21.0001 55.7001H21.9001L21.3001 59.2001C21.3001 58.1001 21.1001 57.3001 20.8001 56.8001C20.4001 56.3001 19.9001 56.1001 19.2001 56.1001C18.5001 56.1001 17.9001 56.4001 17.5001 56.9001C17.1001 57.4001 16.9001 58.2001 16.9001 59.2001C16.9001 60.2001 17.1001 61.0001 17.5001 61.5001C17.9001 62.0001 18.4001 62.3001 19.2001 62.3001C20.0001 62.3001 20.6001 62.1001 20.9001 61.6001C21.2001 61.1001 21.4001 60.3001 21.4001 59.3001L22.2001 62.8001H21.2001C21.1001 63.5001 20.8001 64.1001 20.3001 64.5001C19.8001 64.9001 19.2001 65.1001 18.4001 65.1001ZM21.8001 65.0001L21.4001 62.8001V49.2001H24.2001V64.9001L21.8001 65.0001Z" fill="black"/>
<path d="M27 64.9001V62.3H31.3V64.9001H27ZM27.7 56.5001V53.9001H34V56.5001H27.7ZM32.4 52.4001C31.9 52.4001 31.4 52.2001 31.1 51.9001C30.8 51.6001 30.6 51.1001 30.6 50.6001C30.6 50.1001 30.8 49.6 31.1 49.3C31.4 49 31.9 48.8 32.4 48.8C32.9 48.8 33.4 49 33.7 49.3C34 49.6 34.2 50.1001 34.2 50.6001C34.2 51.1001 34 51.6001 33.7 51.9001C33.4 52.2001 33 52.4001 32.4 52.4001ZM31.1 64.9001V54.5001H33.9V64.9001H31.1V64.9001ZM33.8 64.9001V62.3H37.3V64.9001H33.8Z" fill="black"/>
<path d="M43.0002 65.1001C41.6002 65.1001 40.6002 64.6001 39.8002 63.6001C39.0002 62.6001 38.7002 61.2001 38.7002 59.3001C38.7002 57.5001 39.1002 56.0001 39.8002 55.0001C40.6002 54.0001 41.6002 53.5001 43.0002 53.5001C43.8002 53.5001 44.5002 53.7001 44.9002 54.0001C45.3002 54.4001 45.6002 54.9001 45.8002 55.7001H46.6002L46.0002 59.2001C46.0002 58.1001 45.8002 57.3001 45.5002 56.8001C45.1002 56.3001 44.6002 56.1001 43.9002 56.1001C43.2002 56.1001 42.6002 56.4001 42.2002 56.9001C41.8002 57.4001 41.6002 58.2001 41.6002 59.2001C41.6002 60.2001 41.8002 61.0001 42.2002 61.5001C42.6002 62.0001 43.1002 62.3001 43.9002 62.3001C44.7002 62.3001 45.3002 62.1001 45.6002 61.6001C45.9002 61.1001 46.1002 60.3001 46.1002 59.3001L46.9002 62.8001H45.9002C45.8002 63.5001 45.5002 64.1001 45.0002 64.5001C44.5002 64.9001 43.8002 65.1001 43.0002 65.1001ZM39.8002 69.9001L39.7002 67.4001L43.3002 67.3001C44.3002 67.3001 45.0002 67.0001 45.4002 66.5001C45.8002 66.0001 46.1002 65.2001 46.1002 64.2001V56.1001L46.3002 53.8001H48.9002V63.9001C48.9002 65.9001 48.4002 67.3001 47.5002 68.3001C46.6002 69.2001 45.1002 69.7001 43.1002 69.8001L39.8002 69.9001Z" fill="black"/>
<path d="M51.7002 64.9001V62.3H56.0002V64.9001H51.7002ZM52.3002 56.5001V53.9001H58.6002V56.5001H52.3002ZM57.1002 52.4001C56.6002 52.4001 56.1002 52.2001 55.8002 51.9001C55.5002 51.6001 55.3002 51.1001 55.3002 50.6001C55.3002 50.1001 55.5002 49.6 55.8002 49.3C56.1002 49 56.6002 48.8 57.1002 48.8C57.6002 48.8 58.1002 49 58.4002 49.3C58.7002 49.6 58.9002 50.1001 58.9002 50.6001C58.9002 51.1001 58.7002 51.6001 58.4002 51.9001C58.1002 52.2001 57.6002 52.4001 57.1002 52.4001ZM55.8002 64.9001V54.5001H58.6002V64.9001H55.8002V64.9001ZM58.4002 64.9001V62.3H61.9002V64.9001H58.4002Z" fill="black"/>
<path d="M63.1001 56.4V53.8H73.5001V56.4H63.1001ZM65.7001 59.5V50.5H68.5001V59.5H65.7001ZM71.1001 65.1C69.2001 65.1 67.8001 64.7 67.0001 64C66.1001 63.2 65.7001 62 65.7001 60.3V58.9H68.5001V60.1C68.5001 60.9 68.7001 61.6 69.2001 61.9C69.6001 62.3 70.4001 62.5 71.3001 62.5C71.6001 62.5 72.0001 62.5 72.3001 62.4C72.7001 62.4 73.1001 62.3 73.5001 62.2L73.8001 64.8C73.3001 64.9 72.9001 64.9 72.5001 65C72.1001 65.1 71.6001 65.1 71.1001 65.1Z" fill="black"/>
<path d="M79.4002 65.1C78.2002 65.1 77.3002 64.8 76.7002 64.2C76.1002 63.6 75.7002 62.8 75.7002 61.7C75.7002 60.5 76.1002 59.5 77.0002 58.8C77.9002 58.1 79.1002 57.8 80.6002 57.8C81.2002 57.8 81.7002 57.8 82.2002 57.9C82.6002 58 83.1002 58.1 83.5002 58.2L83.0002 60.4C82.6002 60.3 82.2002 60.2 81.8002 60.2C81.4002 60.2 81.1002 60.2 80.7002 60.2C79.2002 60.2 78.5002 60.6 78.5002 61.5C78.5002 61.9 78.6002 62.2 78.9002 62.4C79.2002 62.6 79.6002 62.7 80.1002 62.7C80.7002 62.7 81.2002 62.6 81.6002 62.4C82.0002 62.2 82.3002 61.9 82.5002 61.5C82.7002 61.1 82.8002 60.8 82.8002 60.4V59.7L83.2002 62.5H82.3002L82.7002 62.2C82.7002 62.8 82.5002 63.4 82.3002 63.8C82.0002 64.2 81.6002 64.5 81.2002 64.8C80.8002 65.1 80.1002 65.1 79.4002 65.1ZM83.2002 65L83.0002 61.7V60.3V58.1C83.0002 57.5 82.7002 57.1 82.2002 56.8C81.7002 56.5 80.9002 56.4 79.9002 56.3L77.1002 56.2L77.3002 53.6H79.7002C81.7002 53.6 83.2002 54 84.2002 54.8C85.2002 55.6 85.7002 56.7 85.7002 58.1V62.2L87.2002 62.4V64.7L83.2002 65Z" fill="black"/>
<path d="M88 51.9001V49.3001H91.3V51.9001H88ZM95.1 65.1001C93.7 65.1001 92.7 64.7001 92.1 64.0001C91.5 63.2001 91.2 62.0001 91.2 60.3001V49.2001H94V60.2001C94 60.7001 94 61.0001 94.1 61.3001C94.2 61.6001 94.4 61.8001 94.7 61.9001C95 62.0001 95.4 62.1001 95.9 62.1001C96.5 62.1001 97.3 62.0001 98.2 61.7001L98.5 64.6001C97.9 64.8001 97.3 64.9001 96.8 64.9001C96.3 65.1001 95.7 65.1001 95.1 65.1001Z" fill="black"/>
<path d="M112.8 64.9V53.8H115.3L115.6 56.1V64.8H112.8V64.9ZM117.1 64.9V57.2C117.1 56.6 116.9 56.3 116.4 56.3C115.9 56.3 115.6 56.7 115.6 57.5L115 55.2H115.8C116 54.1 116.5 53.6 117.5 53.6C118 53.6 118.5 53.8 118.8 54.2C119.1 54.6 119.3 55.2 119.3 56V64.9H117.1ZM120.6 64.9V57.4C120.6 56.6 120.4 56.3 119.9 56.3C119.4 56.3 119.1 56.7 119.1 57.5L118.3 55.2H119.2C119.3 54.7 119.5 54.3 119.8 54C120.1 53.7 120.6 53.6 121.1 53.6C121.8 53.6 122.4 53.8 122.7 54.2C123 54.6 123.2 55.3 123.2 56.2V64.9H120.6Z" fill="#009FE3"/>
<path d="M128.7 65.1C127.5 65.1 126.6 64.8 126 64.2C125.4 63.6 125 62.8 125 61.7C125 60.5 125.4 59.5 126.3 58.8C127.2 58.1 128.4 57.8 129.9 57.8C130.5 57.8 131 57.8 131.5 57.9C131.9 58 132.4 58.1 132.8 58.2L132.3 60.4C131.9 60.3 131.5 60.2 131.1 60.2C130.7 60.2 130.4 60.2 130 60.2C128.5 60.2 127.8 60.6 127.8 61.5C127.8 61.9 127.9 62.2 128.2 62.4C128.5 62.6 128.9 62.7 129.4 62.7C130 62.7 130.5 62.6 130.9 62.4C131.3 62.2 131.6 61.9 131.8 61.5C132 61.1 132.1 60.8 132.1 60.4V59.7L132.5 62.5H131.7L132.1 62.2C132.1 62.8 131.9 63.4 131.7 63.8C131.4 64.2 131 64.5 130.6 64.8C130.2 65.1 129.4 65.1 128.7 65.1ZM132.5 65L132.3 61.7V60.3V58.1C132.3 57.5 132 57.1 131.5 56.8C131 56.5 130.2 56.4 129.2 56.3L126.4 56.2L126.6 53.6H129C131 53.6 132.5 54 133.5 54.8C134.5 55.6 135 56.7 135 58.1V62.2L136.5 62.4V64.7L132.5 65Z" fill="#009FE3"/>
<path d="M137.1 64.9001V62.5001H144.9V64.9001H137.1ZM137.6 56.3001V53.9001H141.8L142 56.3001H137.6ZM139.5 64.9001V53.8001H141.9L142.3 57.0001V64.9001H139.5V64.9001ZM142.3 60.2001L141.7 56.4001H142.7C142.8 54.6001 143.8 53.7001 145.5 53.7001C146.6 53.7001 147.4 54.1001 147.9 54.9001C148.5 55.7001 148.7 56.8001 148.7 58.2001H145.9C145.9 57.5001 145.8 57.1001 145.5 56.8001C145.2 56.5001 144.9 56.4001 144.3 56.4001C143.6 56.4001 143.1 56.7001 142.8 57.4001C142.5 58.0001 142.3 58.9001 142.3 60.2001Z" fill="#009FE3"/>
<path d="M150.3 64.9001V49.2001H153.1V64.9001H150.3ZM152 61.0001V58.3001H153.3C154.1 58.3001 154.8 58.2001 155.3 57.9001C155.8 57.6001 156.3 57.1001 156.6 56.5001C156.9 55.8001 157.1 55.0001 157.3 53.9001H160.2C159.9 56.3001 159.2 58.1001 158.2 59.3001C157.1 60.5001 155.7 61.1001 153.9 61.1001H152V61.0001ZM157.5 64.9001L154.8 59.5001L157.3 58.6001L160.8 64.8001H157.5V64.9001Z" fill="#009FE3"/>
<path d="M168.3 65.1C166.4 65.1 164.9 64.6 163.9 63.6C162.9 62.6 162.3 61.2 162.3 59.3C162.3 57.5 162.7 56.1 163.6 55.1C164.5 54.1 165.7 53.6 167.4 53.6C169 53.6 170.2 54.1 171.1 55C172 55.9 172.4 57.3 172.4 59C172.4 59.5 172.4 60 172.3 60.4H164.2V58.4H169.6C169.6 57.7 169.4 57.1 169 56.7C168.6 56.3 168.1 56.1 167.4 56.1C166.7 56.1 166.1 56.4 165.7 56.9C165.3 57.4 165.1 58.2 165.1 59.1C165.1 60.1 165.4 60.9 166 61.5C166.6 62 167.5 62.3 168.6 62.3C169.1 62.3 169.6 62.3 170.1 62.2C170.6 62.1 171.1 62.1 171.6 62L171.9 64.7C171.2 64.8 170.5 64.9 170 64.9C169.2 65.1 168.7 65.1 168.3 65.1Z" fill="#009FE3"/>
<path d="M174 56.4V53.8H184.4V56.4H174ZM176.7 59.5V50.5H179.5V59.5H176.7ZM182.1 65.1C180.2 65.1 178.8 64.7 178 64C177.1 63.2 176.7 62 176.7 60.3V58.9H179.5V60.1C179.5 60.9 179.7 61.6 180.2 61.9C180.6 62.3 181.4 62.5 182.3 62.5C182.6 62.5 183 62.5 183.3 62.4C183.7 62.4 184.1 62.3 184.5 62.2L184.8 64.8C184.3 64.9 183.9 64.9 183.5 65C183 65.1 182.6 65.1 182.1 65.1Z" fill="#009FE3"/>
<path d="M187.3 64.9001V62.3H191.6V64.9001H187.3ZM187.9 56.5001V53.9001H194.2V56.5001H187.9ZM192.7 52.4001C192.2 52.4001 191.7 52.2001 191.4 51.9001C191.1 51.6001 190.9 51.1001 190.9 50.6001C190.9 50.1001 191.1 49.6 191.4 49.3C191.7 49 192.2 48.8 192.7 48.8C193.2 48.8 193.7 49 194 49.3C194.3 49.6 194.5 50.1001 194.5 50.6001C194.5 51.1001 194.3 51.6001 194 51.9001C193.7 52.2001 193.2 52.4001 192.7 52.4001ZM191.4 64.9001V54.5001H194.2V64.9001H191.4V64.9001ZM194 64.9001V62.3H197.5V64.9001H194Z" fill="#009FE3"/>
<path d="M199.7 64.9001V53.8H202.2L202.5 56.1001V64.8H199.7V64.9001ZM206.2 64.9001V58.4001C206.2 57.7001 206.1 57.2001 205.8 56.9001C205.5 56.5001 205.1 56.4001 204.6 56.4001C203.2 56.4001 202.5 57.4001 202.5 59.5001L201.9 56.0001H202.8C202.9 55.3001 203.2 54.7 203.6 54.3C204 53.9 204.6 53.8 205.4 53.8C206.6 53.8 207.5 54.2001 208.1 54.9001C208.7 55.6001 209.1 56.6001 209.1 57.9001V65.1001H206.2V64.9001Z" fill="#009FE3"/>
<path d="M215.6 65.1001C214.2 65.1001 213.2 64.6001 212.4 63.6001C211.6 62.6001 211.3 61.2001 211.3 59.3001C211.3 57.5001 211.7 56.0001 212.4 55.0001C213.2 54.0001 214.2 53.5001 215.6 53.5001C216.4 53.5001 217.1 53.7001 217.5 54.0001C217.9 54.4001 218.2 54.9001 218.4 55.7001H219.2L218.6 59.2001C218.6 58.1001 218.4 57.3001 218.1 56.8001C217.7 56.3001 217.2 56.1001 216.5 56.1001C215.8 56.1001 215.2 56.4001 214.8 56.9001C214.4 57.4001 214.2 58.2001 214.2 59.2001C214.2 60.2001 214.4 61.0001 214.8 61.5001C215.2 62.0001 215.7 62.3001 216.5 62.3001C217.3 62.3001 217.9 62.1001 218.2 61.6001C218.5 61.1001 218.7 60.3001 218.7 59.3001L219.5 62.8001H218.5C218.4 63.5001 218.1 64.1001 217.6 64.5001C217.1 64.9001 216.4 65.1001 215.6 65.1001ZM212.3 69.9001L212.2 67.4001L215.8 67.3001C216.8 67.3001 217.5 67.0001 217.9 66.5001C218.3 66.0001 218.6 65.2001 218.6 64.2001V56.1001L218.8 53.8001H221.4V63.9001C221.4 65.9001 220.9 67.3001 220 68.3001C219.1 69.2001 217.6 69.7001 215.6 69.8001L212.3 69.9001Z" fill="#009FE3"/>
</svg>
