<svg width="76" height="80" viewBox="0 0 76 80" fill="none" xmlns="http://www.w3.org/2000/svg">
<g clip-path="url(#clip0_141_357)">
<path d="M60.6625 50.8125C60.2149 52.4459 59.5728 54.0197 58.75 55.5L61.1125 61.025L56.1125 66.025L50.5 63.75C49.0208 64.5814 47.447 65.2319 45.8125 65.6875L43.575 71.25H38.75V60C42.7282 60 46.5436 58.4196 49.3566 55.6066C52.1696 52.7936 53.75 48.9782 53.75 45C53.75 41.0218 52.1696 37.2064 49.3566 34.3934C46.5436 31.5804 42.7282 30 38.75 30V18.75H43.575L45.8125 24.3375C47.4459 24.7851 49.0197 25.4272 50.5 26.25L56.025 23.8875L61.025 28.95L58.75 34.5C59.5814 35.9792 60.2319 37.553 60.6875 39.1875L66.25 41.425V48.575L60.6625 50.8125Z" fill="#54E17F"/>
<path d="M30.625 63.75C30.2935 63.75 29.9755 63.6183 29.7411 63.3839C29.5067 63.1495 29.375 62.8315 29.375 62.5C29.375 62.1685 29.5067 61.8505 29.7411 61.6161C29.9755 61.3817 30.2935 61.25 30.625 61.25C31.288 61.25 31.9239 60.9866 32.3928 60.5178C32.8616 60.0489 33.125 59.413 33.125 58.75C33.125 58.4185 33.2567 58.1005 33.4911 57.8661C33.7255 57.6317 34.0435 57.5 34.375 57.5C36.9875 57.5 35.3875 63.75 30.625 63.75Z" fill="#454343"/>
<path d="M21.25 46.25C21.25 45.9185 21.3817 45.6005 21.6161 45.3661C21.8505 45.1317 22.1685 45 22.5 45C22.8315 45 23.1495 45.1317 23.3839 45.3661C23.6183 45.6005 23.75 45.9185 23.75 46.25C23.75 46.913 24.0134 47.5489 24.4822 48.0178C24.9511 48.4866 25.587 48.75 26.25 48.75C26.5815 48.75 26.8995 48.8817 27.1339 49.1161C27.3683 49.3505 27.5 49.6685 27.5 50C27.5 52.6125 21.25 51.0125 21.25 46.25Z" fill="#454343"/>
<path d="M24.9999 41.25C22.3874 41.25 23.9874 35 28.7499 35C29.0814 35 29.3994 35.1317 29.6338 35.3661C29.8682 35.6005 29.9999 35.9185 29.9999 36.25C29.9999 36.5815 29.8682 36.8995 29.6338 37.1339C29.3994 37.3683 29.0814 37.5 28.7499 37.5C28.0869 37.5 27.451 37.7634 26.9821 38.2322C26.5133 38.7011 26.2499 39.337 26.2499 40C26.2499 40.3315 26.1182 40.6495 25.8838 40.8839C25.6494 41.1183 25.3314 41.25 24.9999 41.25Z" fill="#454343"/>
<path d="M40.0002 45C39.6686 45 39.3507 44.8683 39.1163 44.6339C38.8818 44.3995 38.7502 44.0815 38.7502 43.75C38.7491 43.2443 38.5947 42.7507 38.3073 42.3345C38.0199 41.9184 37.613 41.5992 37.1404 41.4191C36.6678 41.239 36.1517 41.2064 35.6602 41.3258C35.1687 41.4451 34.725 41.7107 34.3877 42.0875C34.2777 42.2115 34.1444 42.3125 33.9953 42.3849C33.8463 42.4573 33.6844 42.4997 33.519 42.5096C33.3536 42.5194 33.1879 42.4966 33.0313 42.4424C32.8747 42.3882 32.7303 42.3038 32.6064 42.1938C32.4825 42.0838 32.3814 41.9505 32.309 41.8014C32.2366 41.6524 32.1942 41.4906 32.1844 41.3252C32.1745 41.1597 32.1973 40.994 32.2515 40.8374C32.3057 40.6808 32.3902 40.5365 32.5002 40.4125C33.1736 39.6488 34.0642 39.109 35.0528 38.8651C36.0413 38.6213 37.0808 38.685 38.0322 39.0479C38.9835 39.4108 39.8014 40.0555 40.3765 40.8957C40.9515 41.736 41.2563 42.7318 41.2502 43.75C41.2502 44.0815 41.1185 44.3995 40.884 44.6339C40.6496 44.8683 40.3317 45 40.0002 45Z" fill="#454343"/>
<path d="M40 56.25C39.6685 56.25 39.3505 56.1183 39.1161 55.8839C38.8817 55.6495 38.75 55.3315 38.75 55C38.75 54.0054 38.3549 53.0516 37.6516 52.3483C36.9484 51.6451 35.9946 51.25 35 51.25C34.0054 51.25 33.0516 51.6451 32.3483 52.3483C31.6451 53.0516 31.25 54.0054 31.25 55C31.25 55.3315 31.1183 55.6495 30.8839 55.8839C30.6495 56.1183 30.3315 56.25 30 56.25C29.6685 56.25 29.3505 56.1183 29.1161 55.8839C28.8817 55.6495 28.75 55.3315 28.75 55C28.75 53.3424 29.4085 51.7527 30.5806 50.5806C31.7527 49.4085 33.3424 48.75 35 48.75C36.6576 48.75 38.2473 49.4085 39.4194 50.5806C40.5915 51.7527 41.25 53.3424 41.25 55C41.25 55.3315 41.1183 55.6495 40.8839 55.8839C40.6495 56.1183 40.3315 56.25 40 56.25Z" fill="#454343"/>
<path d="M40.9377 17.1251C40.2066 16.294 39.2679 15.6719 38.2176 15.3226C37.1673 14.9732 36.0431 14.909 34.9599 15.1366C33.8766 15.3642 32.8733 15.8753 32.0524 16.6178C31.2315 17.3603 30.6225 18.3075 30.2877 19.3626C28.3546 20.0759 26.689 21.369 25.5188 23.065C24.3486 24.761 23.7309 26.7771 23.7502 28.8376C22.3955 29.0356 21.1062 29.5489 19.9859 30.336C18.8657 31.1231 17.9457 32.162 17.3001 33.3694C16.6545 34.5767 16.3012 35.9187 16.2687 37.2874C16.2361 38.6561 16.5252 40.0134 17.1127 41.2501C15.9179 42.3217 14.9986 43.6651 14.4324 45.1669C13.8662 46.6687 13.6699 48.2847 13.8599 49.8784C14.0499 51.4721 14.6207 52.9966 15.5241 54.3232C16.4275 55.6498 17.6369 56.7394 19.0502 57.5001C18.6802 58.9129 18.6243 60.3897 18.8862 61.8265C19.1482 63.2634 19.7217 64.6254 20.5664 65.8168C21.4111 67.0083 22.5066 68.0002 23.7757 68.7229C25.0449 69.4456 26.457 69.8816 27.9127 70.0001C28.3633 71.2833 29.1544 72.4199 30.2014 73.2881C31.2483 74.1563 32.5116 74.7235 33.856 74.9289C35.2005 75.1344 36.5755 74.9704 37.834 74.4545C39.0924 73.9385 40.1868 73.0901 41.0002 72.0001C41.3752 71.5001 41.2502 74.8876 41.2502 17.9501C41.2497 17.6462 41.1386 17.3529 40.9377 17.1251V17.1251ZM38.7502 70.8001C38.2145 71.4051 37.5402 71.8713 36.7849 72.1587C36.0296 72.4461 35.216 72.5461 34.4136 72.4503C33.6112 72.3545 32.844 72.0656 32.1777 71.6083C31.5113 71.1511 30.9658 70.5392 30.5877 69.8251C31.2124 69.7132 31.824 69.5373 32.4127 69.3001C32.5653 69.2377 32.7042 69.1458 32.8214 69.0298C32.9386 68.9137 33.0317 68.7758 33.0956 68.6237C33.1594 68.4716 33.1927 68.3085 33.1935 68.1436C33.1943 67.9787 33.1626 67.8152 33.1002 67.6626C33.0378 67.5099 32.946 67.371 32.8299 67.2538C32.7139 67.1367 32.5759 67.0435 32.4238 66.9797C32.2718 66.9158 32.1086 66.8826 31.9437 66.8818C31.7788 66.881 31.6153 66.9127 31.4627 66.9751C30.2082 67.449 28.8496 67.578 27.5283 67.3485C26.2071 67.119 24.9715 66.5394 23.9503 65.6702C22.9292 64.8009 22.1598 63.6737 21.7222 62.4061C21.2847 61.1384 21.1951 59.7766 21.4627 58.4626C22.6886 58.7681 23.9624 58.8317 25.2127 58.6501C25.5442 58.6003 25.8424 58.4209 26.0416 58.1514C26.2409 57.8818 26.3249 57.5441 26.2752 57.2126C26.2254 56.881 26.0461 56.5828 25.7765 56.3836C25.5069 56.1843 25.1692 56.1003 24.8377 56.1501C23.774 56.3059 22.6892 56.2313 21.6568 55.9313C20.6244 55.6312 19.6687 55.1127 18.8542 54.4109C18.0398 53.7091 17.3858 52.8404 16.9365 51.8637C16.4872 50.887 16.2531 49.8251 16.2502 48.7501C16.252 47.5484 16.5424 46.3648 17.0972 45.2989C17.6519 44.233 18.4546 43.316 19.4377 42.6251C19.7042 42.4381 19.8872 42.1546 19.9479 41.8348C20.0086 41.515 19.9421 41.1841 19.7627 40.9126C19.0454 39.8176 18.69 38.5251 18.7467 37.2173C18.8033 35.9096 19.2692 34.6526 20.0784 33.6238C20.8877 32.595 21.9995 31.8462 23.2571 31.4831C24.5147 31.12 25.8546 31.1609 27.0877 31.6001C27.3907 31.6777 27.7118 31.639 27.9876 31.4914C28.2634 31.3439 28.4739 31.0984 28.5775 30.8033C28.6811 30.5081 28.6703 30.1849 28.5472 29.8973C28.4241 29.6098 28.1977 29.3788 27.9127 29.2501C27.3734 29.061 26.8164 28.927 26.2502 28.8501C26.2271 27.2049 26.7457 25.5978 27.726 24.2764C28.7064 22.955 30.094 21.9926 31.6752 21.5376C31.8993 21.4739 32.1011 21.3489 32.2579 21.1766C32.4147 21.0043 32.5203 20.7916 32.5627 20.5626C32.6856 19.9091 32.98 19.3 33.4159 18.7979C33.8517 18.2957 34.4132 17.9184 35.0428 17.7047C35.6725 17.491 36.3477 17.4485 36.9991 17.5817C37.6506 17.7149 38.2549 18.0189 38.7502 18.4626V70.8001Z" fill="#545458"/>
</g>
<circle cx="50" cy="5" r="5" fill="#54E17F"/>
<circle cx="3" cy="18" r="3" fill="#54E17F"/>
<circle cx="73" cy="77" r="3" fill="#54E17F"/>
<defs>
<clipPath id="clip0_141_357">
<rect width="60" height="60" fill="white" transform="translate(10 15)"/>
</clipPath>
</defs>
</svg>
