<svg width="76" height="72" viewBox="0 0 76 72" fill="none" xmlns="http://www.w3.org/2000/svg">
<g clip-path="url(#clip0_141_398)">
<path d="M61.25 28.25V58.25H18.75V28.25H23.75V53.25H56.25V28.25H61.25Z" fill="#454343"/>
<path d="M11.25 63.25H68.75V65.75C68.75 67.0761 68.2232 68.3479 67.2855 69.2855C66.3479 70.2232 65.0761 70.75 63.75 70.75H16.25C14.9239 70.75 13.6521 70.2232 12.7145 69.2855C11.7768 68.3479 11.25 67.0761 11.25 65.75V63.25Z" fill="#454343"/>
<path d="M51.25 49.2125V52H43.525C43.7306 51.4336 43.7966 50.826 43.7176 50.2286C43.6385 49.6313 43.4167 49.0617 43.0709 48.5683C42.725 48.0749 42.2654 47.672 41.7308 47.3939C41.1963 47.1158 40.6026 46.9706 40 46.9706C39.3974 46.9706 38.8037 47.1158 38.2692 47.3939C37.7346 47.672 37.275 48.0749 36.9291 48.5683C36.5833 49.0617 36.3615 49.6313 36.2824 50.2286C36.2034 50.826 36.2694 51.4336 36.475 52H28.75V49.2125L31.15 48.25C31.3445 47.5489 31.6214 46.8734 31.975 46.2375L30.9625 43.8625L33.125 41.7L35.5 42.7125C36.1325 42.3641 36.8038 42.0914 37.5 41.9L38.4625 39.5H41.5375L42.5 41.9C43.2011 42.0945 43.8766 42.3714 44.5125 42.725L46.8875 41.7125L49.05 43.875L48.0375 46.25C48.3859 46.8825 48.6586 47.5538 48.85 48.25L51.25 49.2125Z" fill="#54E17F"/>
<path d="M68.75 62H67.5V25.75C67.5 24.7554 67.1049 23.8016 66.4016 23.0983C65.6984 22.3951 64.7446 22 63.75 22H57.5V13.25C57.5 12.9185 57.3683 12.6005 57.1339 12.3661C56.8995 12.1317 56.5815 12 56.25 12H23.75C23.4185 12 23.1005 12.1317 22.8661 12.3661C22.6317 12.6005 22.5 12.9185 22.5 13.25V22H16.25C15.2554 22 14.3016 22.3951 13.5983 23.0983C12.8951 23.8016 12.5 24.7554 12.5 25.75V62H11.25C10.9185 62 10.6005 62.1317 10.3661 62.3661C10.1317 62.6005 10 62.9185 10 63.25V65.75C10 66.5708 10.1617 67.3835 10.4758 68.1418C10.7898 68.9001 11.2502 69.5891 11.8306 70.1694C12.4109 70.7498 13.0999 71.2102 13.8582 71.5242C14.6165 71.8383 15.4292 72 16.25 72H63.75C64.5708 72 65.3835 71.8383 66.1418 71.5242C66.9001 71.2102 67.5891 70.7498 68.1694 70.1694C68.7498 69.5891 69.2102 68.9001 69.5242 68.1418C69.8383 67.3835 70 66.5708 70 65.75V63.25C70 62.9185 69.8683 62.6005 69.6339 62.3661C69.3995 62.1317 69.0815 62 68.75 62ZM25 14.5H55V52H25V14.5ZM23.75 54.5H56.25C56.5815 54.5 56.8995 54.3683 57.1339 54.1339C57.3683 53.8995 57.5 53.5815 57.5 53.25V29.5H60V57H20V29.5H22.5V53.25C22.5 53.5815 22.6317 53.8995 22.8661 54.1339C23.1005 54.3683 23.4185 54.5 23.75 54.5ZM15 25.75C15 25.4185 15.1317 25.1005 15.3661 24.8661C15.6005 24.6317 15.9185 24.5 16.25 24.5H22.5V27H18.75C18.4185 27 18.1005 27.1317 17.8661 27.3661C17.6317 27.6005 17.5 27.9185 17.5 28.25V58.25C17.5 58.5815 17.6317 58.8995 17.8661 59.1339C18.1005 59.3683 18.4185 59.5 18.75 59.5H61.25C61.5815 59.5 61.8995 59.3683 62.1339 59.1339C62.3683 58.8995 62.5 58.5815 62.5 58.25V28.25C62.5 27.9185 62.3683 27.6005 62.1339 27.3661C61.8995 27.1317 61.5815 27 61.25 27H57.5V24.5H63.75C64.0815 24.5 64.3995 24.6317 64.6339 24.8661C64.8683 25.1005 65 25.4185 65 25.75V62H15V25.75ZM67.5 65.75C67.5 66.7446 67.1049 67.6984 66.4016 68.4016C65.6984 69.1049 64.7446 69.5 63.75 69.5H16.25C15.2554 69.5 14.3016 69.1049 13.5983 68.4016C12.8951 67.6984 12.5 66.7446 12.5 65.75V64.5H31.25C31.25 65.163 31.5134 65.7989 31.9822 66.2678C32.4511 66.7366 33.087 67 33.75 67H46.25C46.913 67 47.5489 66.7366 48.0178 66.2678C48.4866 65.7989 48.75 65.163 48.75 64.5H67.5V65.75Z" fill="#545458"/>
<path d="M43.75 23.375V19.5C43.75 19.1685 43.6183 18.8505 43.3839 18.6161C43.1495 18.3817 42.8315 18.25 42.5 18.25H32.5C32.1685 18.25 31.8505 18.3817 31.6161 18.6161C31.3817 18.8505 31.25 19.1685 31.25 19.5V29.5C31.25 29.8315 31.3817 30.1495 31.6161 30.3839C31.8505 30.6183 32.1685 30.75 32.5 30.75H36.375C36.6011 31.8561 37.1226 32.8804 37.8841 33.7139C38.6456 34.5475 39.6186 35.1592 40.6999 35.484C41.7811 35.8089 42.9302 35.8349 44.025 35.5591C45.1198 35.2833 46.1195 34.7161 46.9178 33.9178C47.7161 33.1195 48.2833 32.1198 48.5591 31.025C48.8349 29.9302 48.8089 28.7811 48.484 27.6999C48.1591 26.6186 47.5474 25.6456 46.7139 24.8841C45.8804 24.1226 44.8561 23.6011 43.75 23.375V23.375ZM33.75 20.75H41.25V23.375C40.0489 23.62 38.9463 24.2127 38.0795 25.0795C37.2127 25.9463 36.62 27.0489 36.375 28.25H33.75V20.75ZM41.25 25.975V28.25H38.975C39.1616 27.7258 39.4626 27.2496 39.8561 26.8561C40.2496 26.4626 40.7258 26.1616 41.25 25.975V25.975ZM42.5 33.25C41.7263 33.2478 40.9723 33.0064 40.3412 32.5588C39.7101 32.1113 39.2329 31.4794 38.975 30.75H42.5C42.8315 30.75 43.1495 30.6183 43.3839 30.3839C43.6183 30.1495 43.75 29.8315 43.75 29.5V25.975C44.5767 26.275 45.2717 26.856 45.7135 27.6164C46.1552 28.3769 46.3157 29.2684 46.1667 30.1351C46.0178 31.0019 45.569 31.7887 44.8987 32.3581C44.2285 32.9275 43.3794 33.2432 42.5 33.25V33.25Z" fill="#454343"/>
</g>
<circle cx="14" cy="5" r="5" fill="#54E17F"/>
<circle cx="3" cy="58" r="3" fill="#54E17F"/>
<circle cx="73" cy="15" r="3" fill="#54E17F"/>
<defs>
<clipPath id="clip0_141_398">
<rect width="60" height="60" fill="white" transform="translate(10 12)"/>
</clipPath>
</defs>
</svg>
