<svg width="76" height="80" viewBox="0 0 76 80" fill="none" xmlns="http://www.w3.org/2000/svg">
<g clip-path="url(#clip0_141_397)">
<path d="M57.9549 42.2956V27.9715C57.8221 27.9621 57.6893 27.9432 57.5659 27.9243C56.1706 27.6681 55.885 26.8612 54.9454 25.8265C54.8981 26.1872 54.7747 26.5289 54.5753 26.8329C54.5086 26.9279 54.4425 27.0229 54.3569 27.108V37.7871C54.4708 37.8727 54.5753 37.9582 54.6892 38.0528C56.5209 39.5715 56.9202 41.1183 57.9549 42.2956Z" fill="#545458"/>
<path d="M22.3297 27.9232C22.1874 27.9421 22.0451 27.961 21.9024 27.9705V42.2853C22.8421 41.2222 23.3082 39.5896 25.2636 37.9759C25.3776 37.8809 25.482 37.7953 25.5959 37.7102V27.1918C25.482 27.0882 25.3776 26.9545 25.292 26.8225C25.0925 26.5281 24.9692 26.1863 24.9124 25.8257C23.9822 26.8604 23.7061 27.6661 22.3297 27.9232Z" fill="#545458"/>
<path d="M57.8881 20.377L57.9547 20.4815V19.6835C57.9547 17.1396 55.8854 15.0608 53.3414 15.0608H26.4591C23.9436 15.0608 21.9026 17.1396 21.9026 19.6835V20.5008L21.9787 20.3775L57.8881 20.377ZM36.5189 18.4125H43.1701C43.3664 18.4125 43.5263 18.5719 43.5263 18.7686C43.5263 18.9649 43.3669 19.1248 43.1701 19.1248H36.5189C36.3226 19.1248 36.1628 18.9654 36.1628 18.7686C36.1628 18.5719 36.3222 18.4125 36.5189 18.4125Z" fill="#545458"/>
<path d="M54.6888 51.9473C54.5748 52.0423 54.4704 52.1278 54.3565 52.2129V64.6109C54.3565 66.3376 52.9612 67.7425 51.2335 67.7425H28.7188C26.9911 67.7425 25.5957 66.3376 25.5957 64.6109V52.289C25.4818 52.2035 25.3774 52.1179 25.2635 52.0234C23.6781 50.7136 23.2692 48.1701 21.9022 46.6036V70.3254C21.9022 72.9071 23.905 74.9386 26.4588 74.9386H53.3411C55.885 74.9386 57.9544 72.8693 57.9544 70.3254V46.6232C57.1381 47.5629 56.7203 50.2578 54.6888 51.9473ZM39.9324 72.1232C38.7924 72.1232 37.8622 71.1929 37.8622 70.0529C37.8622 68.9033 38.7924 67.9731 39.9324 67.9731C41.0725 67.9731 42.0027 68.9033 42.0027 70.0529C42.0027 71.1929 41.0725 72.1232 39.9324 72.1232Z" fill="#545458"/>
<path d="M53.0974 44.3528C53.0974 44.3528 47.2938 51.391 39.9756 51.9891C41.836 51.7733 43.5521 50.8812 44.7978 49.4827C46.0434 48.0841 46.7316 46.2765 46.7316 44.4037C46.7316 42.5308 46.0434 40.7233 44.7978 39.3247C43.5521 37.9262 41.836 37.0341 39.9756 36.8182C47.2938 37.3146 53.0974 44.3528 53.0974 44.3528Z" fill="#454343"/>
<path d="M25.0974 44.3528C25.0974 44.3528 30.901 51.391 38.2192 51.9891C36.3589 51.7733 34.6427 50.8812 33.3971 49.4827C32.1514 48.0841 31.4632 46.2765 31.4632 44.4037C31.4632 42.5308 32.1514 40.7233 33.3971 39.3247C34.6427 37.9262 36.3589 37.0341 38.2192 36.8182C30.901 37.3146 25.0974 44.3528 25.0974 44.3528Z" fill="#454343"/>
<path d="M36.2388 27.2846C38.0462 27.2846 39.5735 25.9194 39.5735 24.303V21.0945H34.2996L33.6035 24.3769C33.4527 25.0897 33.6121 25.7818 34.0542 26.3274C34.5472 26.9362 35.3438 27.2847 36.2388 27.2847" fill="#54E17F"/>
<path d="M45.5604 21.0939H40.2865V24.3024C40.2865 25.8904 41.8445 27.284 43.6212 27.284C44.519 27.284 45.3155 26.9364 45.8072 26.3299C46.2484 25.7851 46.4083 25.0913 46.2561 24.3763L45.5604 21.0939Z" fill="#54E17F"/>
<path d="M51.0032 27.2846C51.8565 27.2846 52.5269 26.9829 52.8903 26.435C53.237 25.9118 53.2595 25.1982 52.9605 24.471C52.9569 24.4624 52.951 24.4557 52.947 24.4471L51.5296 21.0945H46.2876L46.9522 24.2301C47.298 25.8568 49.19 27.2846 51.0032 27.2846" fill="#54E17F"/>
<path d="M22.2018 27.2201C23.8943 26.9116 25.6373 25.6028 26.2505 24.1768C26.2523 24.1732 26.2532 24.1683 26.2554 24.1637L27.0357 22.3221L27.5549 21.0939H22.3738L20.2094 24.4978C19.7083 25.2848 19.5858 26.0376 19.8745 26.5636C20.1288 27.0269 20.6975 27.2831 21.4761 27.2831C21.7152 27.2826 21.9628 27.2561 22.2019 27.2201" fill="#54E17F"/>
<path d="M59.6482 24.4986L57.4933 21.0938H52.3045L53.6057 24.1636C53.6093 24.1731 53.6107 24.1825 53.6143 24.192C54.2312 25.6094 55.9673 26.9116 57.6675 27.2231C57.8944 27.2565 58.143 27.283 58.3825 27.283C59.1628 27.283 59.7324 27.0286 59.9859 26.5653C60.2749 26.0403 60.1516 25.2875 59.6482 24.4986" fill="#54E17F"/>
<path d="M27.5928 22.8292L26.9093 24.4456C26.9084 24.4483 26.9066 24.4506 26.9057 24.4533C26.5999 25.1822 26.6229 25.9035 26.9723 26.4317C27.337 26.9814 28.0061 27.284 28.8575 27.284C30.6706 27.284 32.5622 25.8562 32.908 24.2295L33.5726 21.0944H28.3289L27.5928 22.8292Z" fill="#54E17F"/>
<path d="M44.7243 45.0048C44.7243 45.759 44.5007 46.4963 44.0816 47.1234C43.6626 47.7506 43.067 48.2393 42.3702 48.528C41.6734 48.8166 40.9066 48.8921 40.1669 48.745C39.4272 48.5978 38.7477 48.2346 38.2143 47.7013C37.681 47.168 37.3178 46.4885 37.1707 45.7488C37.0235 45.009 37.0991 44.2423 37.3877 43.5454C37.6763 42.8486 38.1651 42.253 38.7922 41.834C39.4193 41.415 40.1566 41.1913 40.9109 41.1913C41.0207 41.1787 41.1316 41.1787 41.2414 41.1913C40.9537 41.677 40.8359 42.2446 40.9065 42.8047C40.9771 43.3647 41.232 43.8854 41.6312 44.2845C42.0303 44.6836 42.5509 44.9386 43.111 45.0092C43.671 45.0798 44.2386 44.9619 44.7243 44.6743C44.7369 44.7841 44.7369 44.895 44.7243 45.0048Z" fill="#54E17F"/>
<path d="M55.3481 43.6535C52.014 39.6904 46.0076 35.7273 40.3701 35.7273C34.7327 35.7273 28.7008 39.7278 25.3922 43.6535C25.2017 43.8774 25.0974 44.1596 25.0974 44.4511C25.0974 44.7425 25.2017 45.0247 25.3922 45.2487C25.6467 45.5478 31.6404 52.5642 39.3903 53.125C45.0531 53.7232 51.7722 49.4984 55.3481 45.2487C55.5386 45.0247 55.6429 44.7425 55.6429 44.4511C55.6429 44.1596 55.5386 43.8774 55.3481 43.6535V43.6535ZM46.7329 44.4511C46.7329 45.6835 46.3597 46.8882 45.6606 47.913C44.9614 48.9377 43.9677 49.7364 42.8051 50.208C41.6424 50.6796 40.3631 50.803 39.1288 50.5626C37.8946 50.3222 36.7608 49.7287 35.871 48.8572C34.9811 47.9858 34.3751 46.8755 34.1296 45.6667C33.8841 44.458 34.0101 43.2051 34.4917 42.0665C34.9733 40.9279 35.7888 39.9547 36.8352 39.27C37.8815 38.5853 39.1117 38.2198 40.3701 38.2198C42.0577 38.2198 43.6761 38.8763 44.8693 40.0449C46.0626 41.2135 46.7329 42.7984 46.7329 44.4511V44.4511ZM28.09 44.4511C29.3294 43.1955 30.6935 42.0642 32.1622 41.0737C31.7037 42.1431 31.4675 43.2913 31.4675 44.4511C31.4675 45.6109 31.7037 46.759 32.1622 47.8284C30.6935 46.838 29.3294 45.7066 28.09 44.4511ZM48.5781 47.8284C49.0366 46.759 49.2728 45.6109 49.2728 44.4511C49.2728 43.2913 49.0366 42.1431 48.5781 41.0737C50.0468 42.0642 51.4109 43.1955 52.6503 44.4511C51.4109 45.7066 50.0468 46.838 48.5781 47.8284V47.8284Z" fill="#545458"/>
</g>
<circle cx="50" cy="5" r="5" fill="#54E17F"/>
<circle cx="3" cy="18" r="3" fill="#54E17F"/>
<circle cx="73" cy="77" r="3" fill="#54E17F"/>
<defs>
<clipPath id="clip0_141_397">
<rect width="41.4545" height="60" fill="white" transform="translate(19.6429 15)"/>
</clipPath>
</defs>
</svg>
