<svg width="76" height="75" viewBox="0 0 76 75" fill="none" xmlns="http://www.w3.org/2000/svg">
<g clip-path="url(#clip0_141_401)">
<path d="M61.25 25V71.25C61.25 71.913 60.9866 72.5489 60.5178 73.0178C60.0489 73.4866 59.413 73.75 58.75 73.75H21.25C20.587 73.75 19.9511 73.4866 19.4822 73.0178C19.0134 72.5489 18.75 71.913 18.75 71.25V25C18.75 24.337 19.0134 23.7011 19.4822 23.2322C19.9511 22.7634 20.587 22.5 21.25 22.5H28.75V27.5H23.75V68.75H56.25V27.5H51.25V22.5H58.75C59.413 22.5 60.0489 22.7634 60.5178 23.2322C60.9866 23.7011 61.25 24.337 61.25 25Z" fill="#454343"/>
<path d="M56.25 70H23.75C23.4185 70 23.1005 69.8683 22.8661 69.6339C22.6317 69.3995 22.5 69.0815 22.5 68.75V27.5C22.5 27.1685 22.6317 26.8505 22.8661 26.6161C23.1005 26.3817 23.4185 26.25 23.75 26.25H30C30.3315 26.25 30.6495 26.3817 30.8839 26.6161C31.1183 26.8505 31.25 27.1685 31.25 27.5C31.25 27.8315 31.1183 28.1495 30.8839 28.3839C30.6495 28.6183 30.3315 28.75 30 28.75H25V67.5H55V28.75H50C49.6685 28.75 49.3505 28.6183 49.1161 28.3839C48.8817 28.1495 48.75 27.8315 48.75 27.5C48.75 27.1685 48.8817 26.8505 49.1161 26.6161C49.3505 26.3817 49.6685 26.25 50 26.25H56.25C56.5815 26.25 56.8995 26.3817 57.1339 26.6161C57.3683 26.8505 57.5 27.1685 57.5 27.5V68.75C57.5 69.0815 57.3683 69.3995 57.1339 69.6339C56.8995 69.8683 56.5815 70 56.25 70Z" fill="#545458"/>
<path d="M58.75 75H21.25C20.2554 75 19.3016 74.6049 18.5983 73.9016C17.8951 73.1984 17.5 72.2446 17.5 71.25V25C17.5 24.0054 17.8951 23.0516 18.5983 22.3483C19.3016 21.6451 20.2554 21.25 21.25 21.25H30C30.3315 21.25 30.6495 21.3817 30.8839 21.6161C31.1183 21.8505 31.25 22.1685 31.25 22.5C31.25 22.8315 31.1183 23.1495 30.8839 23.3839C30.6495 23.6183 30.3315 23.75 30 23.75H21.25C20.9185 23.75 20.6005 23.8817 20.3661 24.1161C20.1317 24.3505 20 24.6685 20 25V71.25C20 71.5815 20.1317 71.8995 20.3661 72.1339C20.6005 72.3683 20.9185 72.5 21.25 72.5H58.75C59.0815 72.5 59.3995 72.3683 59.6339 72.1339C59.8683 71.8995 60 71.5815 60 71.25V25C60 24.6685 59.8683 24.3505 59.6339 24.1161C59.3995 23.8817 59.0815 23.75 58.75 23.75H50C49.6685 23.75 49.3505 23.6183 49.1161 23.3839C48.8817 23.1495 48.75 22.8315 48.75 22.5C48.75 22.1685 48.8817 21.8505 49.1161 21.6161C49.3505 21.3817 49.6685 21.25 50 21.25H58.75C59.7446 21.25 60.6984 21.6451 61.4016 22.3483C62.1049 23.0516 62.5 24.0054 62.5 25V71.25C62.5 72.2446 62.1049 73.1984 61.4016 73.9016C60.6984 74.6049 59.7446 75 58.75 75Z" fill="#545458"/>
<path d="M50 20H45C45 18.6739 44.4732 17.4021 43.5355 16.4645C42.5979 15.5268 41.3261 15 40 15C38.6739 15 37.4021 15.5268 36.4645 16.4645C35.5268 17.4021 35 18.6739 35 20H30C29.6685 20 29.3505 20.1317 29.1161 20.3661C28.8817 20.6005 28.75 20.9185 28.75 21.25V28.75C28.75 29.0815 28.8817 29.3995 29.1161 29.6339C29.3505 29.8683 29.6685 30 30 30H50C50.3315 30 50.6495 29.8683 50.8839 29.6339C51.1183 29.3995 51.25 29.0815 51.25 28.75V21.25C51.25 20.9185 51.1183 20.6005 50.8839 20.3661C50.6495 20.1317 50.3315 20 50 20V20ZM40 22.5C39.5055 22.5 39.0222 22.3534 38.6111 22.0787C38.2 21.804 37.8795 21.4135 37.6903 20.9567C37.5011 20.4999 37.4516 19.9972 37.548 19.5123C37.6445 19.0273 37.8826 18.5819 38.2322 18.2322C38.5819 17.8826 39.0273 17.6445 39.5123 17.548C39.9972 17.4516 40.4999 17.5011 40.9567 17.6903C41.4135 17.8795 41.804 18.2 42.0787 18.6111C42.3534 19.0222 42.5 19.5055 42.5 20C42.5 20.663 42.2366 21.2989 41.7678 21.7678C41.2989 22.2366 40.663 22.5 40 22.5Z" fill="#54E17F"/>
<path d="M35 35H27.5V42.5H35V35Z" fill="#454343"/>
<path d="M52.5 35H45V42.5H52.5V35Z" fill="#454343"/>
<path d="M35 55H27.5V62.5H35V55Z" fill="#454343"/>
<path d="M52.5 55H45V62.5H52.5V55Z" fill="#454343"/>
<path d="M36.25 40H41.25C41.2486 40.2483 41.3211 40.4914 41.4583 40.6983C41.5956 40.9052 41.7913 41.0665 42.0206 41.1617C42.25 41.2569 42.5024 41.2817 42.7458 41.2329C42.9893 41.184 43.2127 41.0638 43.3875 40.8875C44.75 39.5125 44.775 39.5375 44.9 39.225C44.9957 38.9974 45.0219 38.7465 44.9752 38.504C44.9284 38.2615 44.8109 38.0383 44.6375 37.8625L43.3875 36.6125C43.2127 36.4362 42.9893 36.316 42.7458 36.2672C42.5024 36.2183 42.25 36.2431 42.0206 36.3383C41.7913 36.4335 41.5956 36.5948 41.4583 36.8017C41.3211 37.0086 41.2486 37.2517 41.25 37.5H36.25C35.9185 37.5 35.6005 37.6317 35.3661 37.8661C35.1317 38.1005 35 38.4185 35 38.75C35 39.0815 35.1317 39.3995 35.3661 39.6339C35.6005 39.8683 35.9185 40 36.25 40Z" fill="#545458"/>
<path d="M44.9 58.275C44.775 57.95 44.7 57.9375 43.3875 56.6125C43.2127 56.4362 42.9893 56.316 42.7458 56.2672C42.5024 56.2183 42.25 56.2431 42.0206 56.3383C41.7913 56.4335 41.5956 56.5948 41.4583 56.8017C41.3211 57.0086 41.2486 57.2517 41.25 57.5H36.25C35.9185 57.5 35.6005 57.6317 35.3661 57.8661C35.1317 58.1005 35 58.4185 35 58.75C35 59.0815 35.1317 59.3995 35.3661 59.6339C35.6005 59.8683 35.9185 60 36.25 60H41.25C41.25 60.3315 41.3817 60.6495 41.6161 60.8839C41.8505 61.1183 42.1685 61.25 42.5 61.25C43.1625 61.25 43.3375 60.925 44.6375 59.6375C44.8109 59.4617 44.9284 59.2385 44.9752 58.996C45.0219 58.7535 44.9957 58.5026 44.9 58.275V58.275Z" fill="#545458"/>
<path d="M43.05 45.6875C43.1876 45.5957 43.3057 45.4775 43.3973 45.3397C43.4889 45.2019 43.5522 45.0474 43.5836 44.8849C43.615 44.7225 43.6139 44.5554 43.5803 44.3935C43.5466 44.2315 43.4812 44.0778 43.3877 43.9413C43.2942 43.8048 43.1746 43.6882 43.0357 43.5983C42.8968 43.5084 42.7415 43.4469 42.5787 43.4175C42.4159 43.3881 42.2488 43.3913 42.0873 43.4269C41.9257 43.4625 41.7728 43.5298 41.6375 43.625L33.3125 49.3375C33.1777 49.1243 32.9817 48.9569 32.75 48.8572C32.5184 48.7575 32.262 48.7302 32.0146 48.7788C31.7671 48.8275 31.5402 48.9499 31.3636 49.1299C31.187 49.3099 31.0689 49.5392 31.025 49.7875L30.725 51.5375C30.6917 51.7194 30.6991 51.9065 30.7468 52.0851C30.7946 52.2638 30.8813 52.4297 31.0009 52.5708C31.1205 52.7119 31.2699 52.8247 31.4383 52.9011C31.6068 52.9775 31.7901 53.0155 31.975 53.0125C32.5653 53.1398 33.162 53.2358 33.7625 53.3C33.9848 53.2982 34.2025 53.2372 34.3934 53.1232C34.5842 53.0093 34.7412 52.8464 34.8482 52.6516C34.9552 52.4567 35.0083 52.2369 35.002 52.0147C34.9957 51.7925 34.9303 51.576 34.8125 51.3875L43.05 45.6875Z" fill="#545458"/>
</g>
<circle cx="5" cy="35" r="5" fill="#54E17F"/>
<circle cx="73" cy="65" r="3" fill="#54E17F"/>
<circle cx="49" cy="3" r="3" fill="#54E17F"/>
<defs>
<clipPath id="clip0_141_401">
<rect width="60" height="60" fill="white" transform="translate(10 15)"/>
</clipPath>
</defs>
</svg>
