<svg width="76" height="75" viewBox="0 0 76 75" fill="none" xmlns="http://www.w3.org/2000/svg">
<g clip-path="url(#clip0_141_400)">
<path d="M11.25 25C11.5815 25 11.8995 24.8683 12.1339 24.6339C12.3683 24.3995 12.5 24.0815 12.5 23.75V17.5H18.75C19.0815 17.5 19.3995 17.3683 19.6339 17.1339C19.8683 16.8995 20 16.5815 20 16.25C20 15.9185 19.8683 15.6005 19.6339 15.3661C19.3995 15.1317 19.0815 15 18.75 15H11.25C10.9185 15 10.6005 15.1317 10.3661 15.3661C10.1317 15.6005 10 15.9185 10 16.25V23.75C10 24.0815 10.1317 24.3995 10.3661 24.6339C10.6005 24.8683 10.9185 25 11.25 25Z" fill="#545458"/>
<path d="M18.75 72.5H12.5V66.25C12.5 65.9185 12.3683 65.6005 12.1339 65.3661C11.8995 65.1317 11.5815 65 11.25 65C10.9185 65 10.6005 65.1317 10.3661 65.3661C10.1317 65.6005 10 65.9185 10 66.25V73.75C10 74.0815 10.1317 74.3995 10.3661 74.6339C10.6005 74.8683 10.9185 75 11.25 75H18.75C19.0815 75 19.3995 74.8683 19.6339 74.6339C19.8683 74.3995 20 74.0815 20 73.75C20 73.4185 19.8683 73.1005 19.6339 72.8661C19.3995 72.6317 19.0815 72.5 18.75 72.5Z" fill="#545458"/>
<path d="M68.75 65C68.4185 65 68.1005 65.1317 67.8661 65.3661C67.6317 65.6005 67.5 65.9185 67.5 66.25V72.5H61.25C60.9185 72.5 60.6005 72.6317 60.3661 72.8661C60.1317 73.1005 60 73.4185 60 73.75C60 74.0815 60.1317 74.3995 60.3661 74.6339C60.6005 74.8683 60.9185 75 61.25 75H68.75C69.0815 75 69.3995 74.8683 69.6339 74.6339C69.8683 74.3995 70 74.0815 70 73.75V66.25C70 65.9185 69.8683 65.6005 69.6339 65.3661C69.3995 65.1317 69.0815 65 68.75 65Z" fill="#545458"/>
<path d="M68.75 15H61.25C60.9185 15 60.6005 15.1317 60.3661 15.3661C60.1317 15.6005 60 15.9185 60 16.25C60 16.5815 60.1317 16.8995 60.3661 17.1339C60.6005 17.3683 60.9185 17.5 61.25 17.5H67.5V23.75C67.5 24.0815 67.6317 24.3995 67.8661 24.6339C68.1005 24.8683 68.4185 25 68.75 25C69.0815 25 69.3995 24.8683 69.6339 24.6339C69.8683 24.3995 70 24.0815 70 23.75V16.25C70 15.9185 69.8683 15.6005 69.6339 15.3661C69.3995 15.1317 69.0815 15 68.75 15V15Z" fill="#545458"/>
<circle cx="40" cy="45" r="24.6429" fill="#545458"/>
<circle cx="40" cy="45" r="21.4286" fill="#454343"/>
<path d="M45.4987 36.4272C45.4785 36.2869 45.3583 36.2065 45.2578 36.2065C45.1574 36.2065 43.1689 36.1665 43.1689 36.1665C43.1689 36.1665 41.502 34.5624 41.3415 34.3817C41.1806 34.2213 40.8592 34.2616 40.7389 34.3016C40.7389 34.3016 40.4175 34.4017 39.8953 34.5621C39.8148 34.2813 39.6743 33.9405 39.4936 33.5794C38.911 32.4565 38.0276 31.8549 36.9831 31.8549C36.9026 31.8549 36.8424 31.8549 36.7622 31.8749C36.7219 31.8349 36.702 31.7948 36.6617 31.7745C36.1999 31.2933 35.6173 31.0525 34.9146 31.0726C33.5689 31.1126 32.2231 32.0954 31.1185 33.8201C30.3554 35.0433 29.773 36.5676 29.5923 37.7508C28.0458 38.2321 26.961 38.5729 26.921 38.5729C26.1378 38.8137 26.1177 38.8337 26.0172 39.5759C25.9772 40.1373 23.9286 55.9606 23.9286 55.9606L41.1205 58.9286L48.5714 57.0837C48.5515 57.0837 45.5188 36.5676 45.4987 36.4272V36.4272ZM39.0318 34.8429C38.6301 34.9633 38.1882 35.1037 37.7062 35.2641C37.7062 34.5821 37.6058 33.6197 37.3045 32.8173C38.3289 32.9777 38.831 34.1412 39.0318 34.8432V34.8429ZM36.8024 35.5248C35.8457 35.8211 34.8883 36.1153 33.9303 36.4072C34.2117 35.3444 34.7336 34.3013 35.3764 33.5994C35.6175 33.3389 35.9591 33.0581 36.3403 32.8974C36.742 33.6797 36.8226 34.7828 36.8022 35.5248H36.8024ZM34.9546 31.975C35.276 31.975 35.5372 32.0353 35.758 32.1957C35.3966 32.3761 35.0349 32.6569 34.7135 33.0178C33.85 33.9405 33.1873 35.3644 32.9261 36.7481C32.1028 37.0088 31.2995 37.2496 30.5764 37.4701C31.0584 35.2841 32.8861 32.0353 34.9546 31.975V31.975Z" fill="#54E17F"/>
<path d="M45.2359 36.2108C45.1348 36.2108 43.1332 36.1708 43.1332 36.1708C43.1332 36.1708 41.4557 34.5664 41.2938 34.386C41.2333 34.326 41.1525 34.2857 41.0714 34.2857V58.9286L48.5714 57.084C48.5714 57.084 45.5188 36.5716 45.4986 36.4313C45.458 36.2909 45.3369 36.2108 45.2359 36.2108Z" fill="#3CAB5E"/>
<path d="M36.7857 39.9307L35.9124 43.0574C35.9124 43.0574 34.9375 42.6302 33.7797 42.7077C32.0735 42.8049 32.0735 43.834 32.0735 44.0865C32.1751 45.4847 36.0137 45.7954 36.2374 49.0771C36.3998 51.66 34.8156 53.427 32.5001 53.563C29.7377 53.6989 28.2143 52.1454 28.2143 52.1454L28.8033 49.7568C28.8033 49.7568 30.347 50.8638 31.5657 50.786C32.3578 50.7472 32.6625 50.1063 32.622 49.6793C32.4998 47.8539 29.3719 47.9705 29.1688 44.9604C29.0064 42.4359 30.7329 39.8922 34.5514 39.6591C36.034 39.5619 36.7857 39.931 36.7857 39.931V39.9307Z" fill="white"/>
<path d="M53.0171 34.3157H55.2075C55.2871 34.3157 55.3668 34.3558 55.4066 34.3157C55.8845 34.4359 56.1633 34.9165 56.0438 35.3571C55.9244 35.9179 55.3668 36.3985 54.8092 36.3985H52.6189L52.1808 38.6015C52.0613 39.1622 51.5038 39.6428 50.9462 39.6428C50.3887 39.6428 49.9904 39.1622 50.1099 38.6015L50.548 36.3985H48.3576C47.8 36.3985 47.4018 35.9179 47.5213 35.3571C47.6407 34.7964 48.1983 34.3157 48.7558 34.3157H50.9462L51.3843 32.1128C51.5038 31.5521 52.0613 31.0714 52.6189 31.0714C53.1764 31.0714 53.5747 31.5521 53.4552 32.1128L53.0171 34.3157Z" fill="#54E17F"/>
</g>
<circle cx="50" cy="5" r="5" fill="#54E17F"/>
<circle cx="3" cy="31" r="3" fill="#54E17F"/>
<circle cx="73" cy="51" r="3" fill="#54E17F"/>
<defs>
<clipPath id="clip0_141_400">
<rect width="60" height="60" fill="white" transform="translate(10 15)"/>
</clipPath>
</defs>
</svg>
