<svg width="141" height="160" viewBox="0 0 141 160" fill="none" xmlns="http://www.w3.org/2000/svg">
<path d="M36.8483 32.088L48.5645 26.8348L43.8595 16.3413L32.1433 21.5945L36.8483 32.088Z" fill="url(#paint0_linear_404_3)"/>
<path d="M55.2285 11.2452L20.7916 26.6856C19.5438 23.9026 19.4526 20.7378 20.5382 17.8875C21.6237 15.0372 23.7971 12.735 26.5802 11.4872L40.0301 5.45665C42.8131 4.20881 45.9778 4.11761 48.8281 5.20317C51.6784 6.28873 53.9807 8.46213 55.2285 11.2452Z" fill="url(#paint1_linear_404_3)"/>
<path d="M103.137 20.2234L94.165 16.7238L91.0288 24.7637L100 28.2634L103.137 20.2234Z" fill="url(#paint2_linear_404_3)"/>
<path d="M108.85 15.6737L107.33 19.5937C107.182 19.9604 106.939 20.2813 106.626 20.5237C106.313 20.7661 105.942 20.9214 105.55 20.9737C105.215 21.0293 104.87 20.9983 104.55 20.8838H104.43L102.17 20.0038L101.31 19.6637L98.9201 18.7337L98.0701 18.3937L95.6901 17.4637L94.8101 17.1238L92.6301 16.2737C92.564 16.2498 92.5005 16.2197 92.4401 16.1838C92.1444 16.0396 91.8873 15.8271 91.6901 15.5638C91.4552 15.2618 91.3022 14.9042 91.2461 14.5258C91.1901 14.1473 91.2327 13.7608 91.37 13.4037L92.9001 9.49375C93.0478 9.11528 93.2965 8.78462 93.6192 8.53776C93.9419 8.2909 94.3261 8.13729 94.73 8.09373C95.0681 8.04777 95.4124 8.08907 95.73 8.21372H95.8101L98.11 9.11375L98.98 9.45371L101.36 10.3838L102.21 10.7237L104.59 11.6437L105.47 11.9938L107.61 12.8238L107.83 12.9338C108.303 13.1914 108.666 13.6131 108.85 14.1195C109.035 14.626 109.027 15.1823 108.83 15.6838L108.85 15.6737Z" fill="url(#paint3_linear_404_3)"/>
<path d="M70.3599 159.084C109.169 159.084 140.63 127.623 140.63 88.8138C140.63 50.0047 109.169 18.5438 70.3599 18.5438C31.5508 18.5438 0.0898438 50.0047 0.0898438 88.8138C0.0898438 127.623 31.5508 159.084 70.3599 159.084Z" fill="url(#paint4_linear_404_3)"/>
<path d="M70.3599 149.274C103.751 149.274 130.82 122.205 130.82 88.8138C130.82 55.4226 103.751 28.3538 70.3599 28.3538C36.9687 28.3538 9.8999 55.4226 9.8999 88.8138C9.8999 122.205 36.9687 149.274 70.3599 149.274Z" fill="white"/>
<path d="M89.8696 40.1138L87.0996 47.0237" stroke="#536DFE" stroke-width="1.24" stroke-linecap="round" stroke-linejoin="round"/>
<path d="M53.6099 130.594L50.8398 137.504" stroke="#536DFE" stroke-width="1.24" stroke-linecap="round" stroke-linejoin="round"/>
<path d="M119.05 108.324L112.14 105.554" stroke="#536DFE" stroke-width="1.24" stroke-linecap="round" stroke-linejoin="round"/>
<path d="M28.5702 72.0638L21.6602 69.2938" stroke="#536DFE" stroke-width="1.24" stroke-linecap="round" stroke-linejoin="round"/>
<path d="M90.99 137.044L88.0601 130.204" stroke="#536DFE" stroke-width="1.24" stroke-linecap="round" stroke-linejoin="round"/>
<path d="M52.65 47.4238L49.73 40.5837" stroke="#536DFE" stroke-width="1.24" stroke-linecap="round" stroke-linejoin="round"/>
<path d="M22.1299 109.444L28.9698 106.514" stroke="#536DFE" stroke-width="1.24" stroke-linecap="round" stroke-linejoin="round"/>
<path d="M111.75 71.1038L118.59 68.1838" stroke="#536DFE" stroke-width="1.24" stroke-linecap="round" stroke-linejoin="round"/>
<path d="M109.12 72.0938L69.5997 86.6537C69.0282 86.854 68.5596 87.2731 68.2971 87.8188C68.0345 88.3645 67.9994 88.9922 68.1997 89.5638C68.3999 90.1353 68.8191 90.6039 69.3648 90.8665C69.9106 91.129 70.5382 91.164 71.1097 90.9637C71.2764 90.9095 71.4346 90.8321 71.5797 90.7338L109.12 72.0938Z" fill="url(#paint5_linear_404_3)"/>
<path d="M81.9799 118.624L72.5099 88.0538C72.2925 87.5038 71.8707 87.0593 71.3329 86.8133C70.7951 86.5672 70.183 86.5388 69.6247 86.734C69.0664 86.9291 68.6052 87.3326 68.3378 87.8601C68.0704 88.3876 68.0174 88.9981 68.19 89.5638C68.2403 89.7142 68.3073 89.8584 68.3899 89.9938L81.9799 118.624Z" fill="url(#paint6_linear_404_3)"/>
<defs>
<linearGradient id="paint0_linear_404_3" x1="55.3694" y1="52.9534" x2="25.9094" y2="-3.60658" gradientUnits="userSpaceOnUse">
<stop stop-color="#AAD0FF"/>
<stop offset="1" stop-color="#536DFE"/>
</linearGradient>
<linearGradient id="paint1_linear_404_3" x1="29.6989" y1="-40.025" x2="71.3989" y2="263.655" gradientUnits="userSpaceOnUse">
<stop stop-color="#FFB64D"/>
<stop offset="1" stop-color="#FFF4D4"/>
</linearGradient>
<linearGradient id="paint2_linear_404_3" x1="102.08" y1="10.1743" x2="90.1999" y2="39.4043" gradientUnits="userSpaceOnUse">
<stop stop-color="#AAD0FF"/>
<stop offset="1" stop-color="#536DFE"/>
</linearGradient>
<linearGradient id="paint3_linear_404_3" x1="91.4801" y1="-48.4263" x2="133.18" y2="255.254" gradientUnits="userSpaceOnUse">
<stop stop-color="#FFB64D"/>
<stop offset="1" stop-color="#FFF4D4"/>
</linearGradient>
<linearGradient id="paint4_linear_404_3" x1="0.0698437" y1="88.8138" x2="140.65" y2="88.8138" gradientUnits="userSpaceOnUse">
<stop stop-color="#546EFF"/>
<stop offset="1" stop-color="#536DFE"/>
</linearGradient>
<linearGradient id="paint5_linear_404_3" x1="82.3697" y1="67.4437" x2="137.26" y2="184.364" gradientUnits="userSpaceOnUse">
<stop stop-color="#0C9D58"/>
<stop offset="1" stop-color="#00D496"/>
</linearGradient>
<linearGradient id="paint6_linear_404_3" x1="64.31" y1="75.9238" x2="119.2" y2="192.834" gradientUnits="userSpaceOnUse">
<stop stop-color="#0C9D58"/>
<stop offset="1" stop-color="#00D496"/>
</linearGradient>
</defs>
</svg>
