<svg width="98" height="98" viewBox="0 0 98 98" fill="none" xmlns="http://www.w3.org/2000/svg">
<path d="M48.59 97.18C75.4255 97.18 97.18 75.4255 97.18 48.59C97.18 21.7545 75.4255 0 48.59 0C21.7545 0 0 21.7545 0 48.59C0 75.4255 21.7545 97.18 48.59 97.18Z" fill="url(#paint0_linear_404_7)"/>
<path d="M48.59 91.52C72.2996 91.52 91.52 72.2996 91.52 48.59C91.52 24.8804 72.2996 5.66 48.59 5.66C24.8804 5.66 5.65997 24.8804 5.65997 48.59C5.65997 72.2996 24.8804 91.52 48.59 91.52Z" fill="url(#paint1_linear_404_7)"/>
<path d="M49.03 14.92C50.0959 14.92 50.96 14.0559 50.96 12.99C50.96 11.9241 50.0959 11.06 49.03 11.06C47.9641 11.06 47.1 11.9241 47.1 12.99C47.1 14.0559 47.9641 14.92 49.03 14.92Z" fill="white"/>
<path d="M49.03 86.12C50.0959 86.12 50.96 85.2559 50.96 84.19C50.96 83.1241 50.0959 82.26 49.03 82.26C47.9641 82.26 47.1 83.1241 47.1 84.19C47.1 85.2559 47.9641 86.12 49.03 86.12Z" fill="white"/>
<path d="M84.34 50.52C85.4059 50.52 86.27 49.6559 86.27 48.59C86.27 47.5241 85.4059 46.66 84.34 46.66C83.2741 46.66 82.41 47.5241 82.41 48.59C82.41 49.6559 83.2741 50.52 84.34 50.52Z" fill="white"/>
<path d="M12.84 50.52C13.9059 50.52 14.77 49.6559 14.77 48.59C14.77 47.5241 13.9059 46.66 12.84 46.66C11.7741 46.66 10.91 47.5241 10.91 48.59C10.91 49.6559 11.7741 50.52 12.84 50.52Z" fill="white"/>
<path d="M74.08 25.66C75.1459 25.66 76.0099 24.7959 76.0099 23.73C76.0099 22.6641 75.1459 21.8 74.08 21.8C73.0141 21.8 72.15 22.6641 72.15 23.73C72.15 24.7959 73.0141 25.66 74.08 25.66Z" fill="white"/>
<path d="M23.73 76.01C24.796 76.01 25.66 75.1459 25.66 74.08C25.66 73.0141 24.796 72.15 23.73 72.15C22.6641 72.15 21.8 73.0141 21.8 74.08C21.8 75.1459 22.6641 76.01 23.73 76.01Z" fill="white"/>
<path d="M73.8701 75.8C74.936 75.8 75.8 74.9359 75.8 73.87C75.8 72.8041 74.936 71.94 73.8701 71.94C72.8041 71.94 71.94 72.8041 71.94 73.87C71.94 74.9359 72.8041 75.8 73.8701 75.8Z" fill="white"/>
<path d="M23.31 25.24C24.3759 25.24 25.2401 24.3759 25.2401 23.31C25.2401 22.2441 24.3759 21.38 23.31 21.38C22.2441 21.38 21.3799 22.2441 21.3799 23.31C21.3799 24.3759 22.2441 25.24 23.31 25.24Z" fill="white"/>
<path d="M48.59 48.59V26.29" stroke="#050505" stroke-width="1.18" stroke-linecap="round" stroke-linejoin="round"/>
<path d="M48.59 48.59L59.0001 57.85" stroke="#050505" stroke-width="1.18" stroke-linecap="round" stroke-linejoin="round"/>
<path d="M48.59 50.14C49.4461 50.14 50.14 49.4461 50.14 48.59C50.14 47.734 49.4461 47.04 48.59 47.04C47.734 47.04 47.04 47.734 47.04 48.59C47.04 49.4461 47.734 50.14 48.59 50.14Z" fill="#050505"/>
<defs>
<linearGradient id="paint0_linear_404_7" x1="-9.03" y1="-38.46" x2="99.24" y2="125.13" gradientUnits="userSpaceOnUse">
<stop stop-color="#E9F8FF"/>
<stop offset="1" stop-color="#55BEFF"/>
</linearGradient>
<linearGradient id="paint1_linear_404_7" x1="25.71" y1="-65.83" x2="51.78" y2="64.57" gradientUnits="userSpaceOnUse">
<stop stop-color="#FFFAE9"/>
<stop offset="1" stop-color="#BFFFE5"/>
</linearGradient>
</defs>
</svg>
