<svg width="200" height="36" viewBox="0 0 200 36" fill="none" xmlns="http://www.w3.org/2000/svg">
<g clip-path="url(#clip0_2_432)">
<path d="M138.237 17.3166C138.237 15.642 137.218 14.0733 134.775 14.0733C130.541 14.0733 127.546 19.6553 127.546 23.9286C127.546 26.77 128.75 29.4913 132.213 29.4913C133.64 29.5193 135.046 29.1313 136.26 28.3746L135.856 27.3256C134.83 27.9706 133.642 28.3139 132.43 28.3163C130.853 28.3163 129.71 27.4763 129.186 25.803C128.92 24.583 128.876 23.3296 129.063 22.0963C133.906 22.133 138.233 21.0863 138.233 17.313L138.237 17.3166ZM134.53 15.2456C135.925 15.2456 136.847 15.988 136.847 17.3473V17.378C136.847 20.3146 133.14 20.9613 129.277 20.9313C130.198 17.718 132.244 15.2456 134.53 15.2456ZM150.472 14.38H148.898L145.828 18.2433C145.116 19.1086 144.778 19.639 144.153 20.5293H144.09C143.75 19.756 143.473 18.9826 143.133 18.1206L141.586 14.3806H140.166L143.236 21.6373L137.096 29.2066H138.673L142.023 25.0033C142.6 24.2606 143.136 23.4873 143.63 22.6866H143.69C144.06 23.736 144.273 24.325 144.706 25.3133L146.283 29.2066H147.733L144.596 21.6433L150.466 14.38H150.472ZM158.536 14.0733C156.56 14.0733 154.704 15.34 153.364 17.378H153.304L153.767 14.3803H152.5C152.317 15.7403 152.037 17.5336 151.664 19.4803L148.714 35.2703H150.044L151.22 28.8736H151.284C152.204 29.337 153.224 29.5636 154.25 29.5236C158.98 29.5236 162.41 23.9003 162.41 18.897C162.407 16.457 161.357 14.077 158.544 14.077L158.536 14.0733ZM154.366 28.3466C153.16 28.3466 152.172 28.0373 151.494 27.51L152.449 22.402C153.286 17.922 156.032 15.2346 158.134 15.2346C160.327 15.2346 161.009 17.2136 161.009 18.9746C161.009 22.787 158.29 28.347 154.366 28.347L154.366 28.3466ZM171.082 14.0733C166.848 14.0733 163.853 19.6553 163.853 23.9286C163.853 26.77 165.058 29.4913 168.519 29.4913C169.948 29.5193 171.354 29.1314 172.566 28.3746L172.164 27.3256C171.136 27.9705 169.948 28.3129 168.734 28.3136C167.157 28.3136 166.015 27.477 165.491 25.8036C165.224 24.5903 165.182 23.337 165.365 22.1103C170.216 22.1403 174.542 21.0936 174.542 17.3203C174.54 15.6536 173.521 14.077 171.082 14.077V14.0733ZM173.15 17.378C173.15 20.3146 169.443 20.9613 165.581 20.9313C166.507 17.718 168.547 15.2456 170.833 15.2456C172.229 15.2456 173.15 15.988 173.15 17.3473V17.378ZM178.743 17.6266H178.682C178.866 16.3283 178.992 15.34 179.084 14.3833H177.88C177.757 15.681 177.54 17.35 177.17 19.234L175.287 29.215H176.617L178.037 21.679C178.654 18.4356 180.83 15.4996 182.767 15.4996C182.934 15.4896 183.097 15.4996 183.26 15.5296L183.54 14.1096C183.387 14.1096 183.17 14.0763 182.984 14.0763C181.13 14.0696 179.65 15.643 178.754 17.623L178.743 17.6266ZM187.641 28.3166C186.714 28.3166 186.312 27.7916 186.312 26.9206C186.335 26.0578 186.438 25.1989 186.622 24.3556L188.252 15.5246H191.744L191.994 14.3803H188.507L189.157 11.137L187.677 11.7236L187.184 14.3803H185.02L184.807 15.527H186.94L185.267 24.3636C185.054 25.2536 184.94 26.167 184.927 27.0836C184.927 28.3203 185.61 29.4936 187.37 29.4936C187.864 29.4936 188.35 29.4203 188.824 29.2803L188.732 28.2003C188.382 28.3003 188.019 28.3436 187.654 28.3236L187.641 28.3166ZM197.404 15.2456C198.147 15.2631 198.872 15.4758 199.506 15.8623L200 14.718C199.567 14.3773 198.579 14.0703 197.558 14.0703C194.931 14.0703 193.048 15.957 193.048 18.2736C193.048 19.6703 193.851 20.9936 195.333 21.9503C196.729 22.847 197.343 23.7436 197.343 25.2236C197.343 26.9236 196.014 28.3136 194.069 28.3136C193.138 28.3103 192.232 28.017 191.473 27.477L190.949 28.5936C191.443 28.997 192.623 29.4903 193.946 29.4903C196.51 29.4903 198.69 27.8536 198.69 24.8536C198.69 23.3403 197.823 21.9836 196.403 21.0236C195.196 20.187 194.393 19.417 194.393 18.027C194.403 16.517 195.61 15.2503 197.403 15.2503L197.404 15.2456Z" fill="#C7C7C7"/>
<path d="M26.7783 7.02203C26.7533 6.84669 26.604 6.74636 26.4793 6.74636C26.3547 6.74636 23.886 6.69636 23.886 6.69636C23.886 6.69636 21.8167 4.69303 21.6173 4.46736C21.4177 4.26703 21.0187 4.31736 20.8693 4.36736C20.8693 4.36736 20.4703 4.49236 19.822 4.69269C19.722 4.34203 19.5477 3.91636 19.3233 3.46536C18.6 2.06303 17.5033 1.31169 16.2067 1.31169C16.1067 1.31169 16.032 1.31169 15.9323 1.33669C15.8823 1.28669 15.8577 1.23669 15.8077 1.21136C15.2343 0.610359 14.511 0.309693 13.6387 0.334693C11.968 0.384693 10.2973 1.61203 8.926 3.76603C7.97867 5.29369 7.25567 7.19736 7.03133 8.67503C5.11133 9.27603 3.76467 9.70169 3.715 9.70169C2.74267 10.0024 2.71767 10.0274 2.593 10.9544C2.54333 11.6554 0 31.4167 0 31.4167L21.343 35.1234L30.593 32.8194C30.5683 32.8194 26.8033 7.19736 26.7783 7.02203ZM18.75 5.04336C18.2513 5.19369 17.7027 5.36903 17.1043 5.56936C17.1043 4.71769 16.9797 3.51569 16.6057 2.51369C17.8773 2.71403 18.5007 4.16703 18.75 5.04369V5.04336ZM15.9823 5.89503C14.7946 6.26506 13.6061 6.63239 12.4167 6.99703C12.766 5.66969 13.414 4.36703 14.212 3.49036C14.5113 3.16503 14.9353 2.81436 15.4087 2.61369C15.9073 3.59069 16.0073 4.96836 15.982 5.89503H15.9823ZM13.6883 1.46169C14.0873 1.46169 14.4117 1.53703 14.6857 1.73736C14.237 1.96269 13.788 2.31336 13.389 2.76403C12.317 3.91636 11.4943 5.69469 11.17 7.42269C10.148 7.74836 9.15067 8.04903 8.253 8.32436C8.85133 5.59436 11.1203 1.53703 13.6883 1.46169Z" fill="#54E17F"/>
<path d="M26.4793 6.74671C26.3547 6.74671 23.886 6.69671 23.886 6.69671C23.886 6.69671 21.817 4.69271 21.6173 4.46737C21.5427 4.39237 21.443 4.34204 21.343 4.34204V35.1234L30.5933 32.8194C30.5933 32.8194 26.8283 7.19737 26.8033 7.02204C26.7533 6.84671 26.604 6.74671 26.4793 6.74671Z" fill="#3CAB5E"/>
<path d="M16.2067 11.53L15.1347 15.5627C15.1347 15.5627 13.938 15.0117 12.5167 15.1117C10.4223 15.237 10.4223 16.5644 10.4223 16.89C10.547 18.6934 15.259 19.094 15.5337 23.3267C15.733 26.6581 13.7883 28.937 10.946 29.1124C7.555 29.2877 5.685 27.284 5.685 27.284L6.408 24.2034C6.408 24.2034 8.303 25.6311 9.799 25.5307C10.7713 25.4807 11.1453 24.654 11.0957 24.1034C10.9457 21.749 7.106 21.8994 6.85666 18.017C6.65733 14.761 8.77666 11.4804 13.464 11.1797C15.284 11.0544 16.2067 11.5304 16.2067 11.5304V11.53Z" fill="white"/>
<path d="M43.1097 20.1209C42.0377 19.5449 41.489 19.0439 41.489 18.3676C41.489 17.5163 42.262 16.9653 43.4587 16.9653C44.855 16.9653 46.1017 17.5413 46.1017 17.5413L47.074 14.5356C47.074 14.5356 46.1763 13.8343 43.5337 13.8343C39.8433 13.8343 37.2753 15.9633 37.2753 18.9436C37.2753 20.6469 38.472 21.9243 40.0677 22.8509C41.3643 23.5773 41.813 24.1033 41.813 24.8796C41.813 25.6809 41.165 26.3323 39.968 26.3323C38.1977 26.3323 36.5023 25.4056 36.5023 25.4056L35.455 28.4109C35.455 28.4109 37.001 29.4629 39.619 29.4629C43.409 29.4629 46.1517 27.5846 46.1517 24.2033C46.1267 22.3749 44.7553 21.0726 43.1097 20.1209ZM58.2193 13.7843C56.3493 13.7843 54.8783 14.6859 53.7563 16.0386L53.7063 16.0136L55.327 7.49793H51.1133L46.9993 29.1876H51.213L52.6093 21.7743C53.1577 18.9689 54.604 17.2409 55.9503 17.2409C56.8977 17.2409 57.2717 17.8919 57.2717 18.8186C57.2717 19.3946 57.222 20.1209 57.0973 20.6969L55.5017 29.1876H59.7153L61.361 20.4216C61.5353 19.4949 61.66 18.3929 61.66 17.6416C61.685 15.2369 60.4383 13.7843 58.2193 13.7843ZM71.2347 13.7843C66.148 13.7843 62.782 18.3926 62.782 23.5273C62.782 26.8083 64.8017 29.4629 68.5917 29.4629C73.5783 29.4629 76.9443 24.9796 76.9443 19.7203C76.9693 16.6896 75.199 13.7843 71.2347 13.7843ZM69.165 26.2319C67.719 26.2319 67.1207 25.0049 67.1207 23.4519C67.1207 21.0226 68.3673 17.0653 70.661 17.0653C72.157 17.0653 72.6557 18.3676 72.6557 19.6199C72.6557 22.2246 71.384 26.2319 69.165 26.2319ZM87.7653 13.7843C84.923 13.7843 83.3023 16.3139 83.3023 16.3139H83.2523L83.5017 14.0346H79.7617C79.5873 15.5626 79.238 17.9169 78.914 19.6699L75.972 35.1986H80.1857L81.3573 28.9119H81.4573C81.4573 28.9119 82.33 29.4629 83.9257 29.4629C88.8873 29.4629 92.1287 24.3536 92.1287 19.1943C92.1287 16.3389 90.857 13.7843 87.7653 13.7843ZM83.726 26.2823C82.629 26.2823 81.9807 25.6559 81.9807 25.6559L82.679 21.6986C83.1777 19.0439 84.549 17.2906 86.02 17.2906C87.3167 17.2906 87.7153 18.4929 87.7153 19.6199C87.7153 22.3749 86.0947 26.2823 83.726 26.2823ZM98.1627 7.69827C96.816 7.69827 95.744 8.77493 95.744 10.1526C95.744 11.4049 96.542 12.2816 97.7387 12.2816H97.7887C99.11 12.2816 100.232 11.3799 100.257 9.82727C100.257 8.59993 99.434 7.69827 98.1627 7.69827ZM92.2533 29.1623H96.467L99.3343 14.1349H95.0957L92.2533 29.1623ZM110.081 14.1099H107.139L107.288 13.4086C107.537 11.9559 108.385 10.6786 109.806 10.6786C110.554 10.6786 111.153 10.9039 111.153 10.9039L111.976 7.57293C111.976 7.57293 111.253 7.19727 109.682 7.19727C108.186 7.19727 106.69 7.62293 105.543 8.59993C104.097 9.82693 103.423 11.6053 103.099 13.4086L102.975 14.1099H101.005L100.382 17.3156H102.351L100.107 29.1876H104.321L106.565 17.3159H109.482L110.081 14.1099ZM120.253 14.1349C120.253 14.1349 117.61 20.8223 116.439 24.4789H116.389C116.314 23.3016 115.342 14.1349 115.342 14.1349H110.903L113.447 27.9349C113.496 28.2356 113.472 28.4359 113.347 28.6366C112.848 29.5883 112.025 30.5149 111.053 31.1913C110.255 31.7673 109.358 32.1429 108.659 32.3933L109.831 35.9999C110.679 35.8246 112.474 35.0983 113.97 33.6956C115.89 31.8923 117.685 29.0873 119.505 25.2803L124.667 14.1349H120.253Z" fill="white"/>
</g>
<defs>
<clipPath id="clip0_2_432">
<rect width="200" height="36" fill="white"/>
</clipPath>
</defs>
</svg>
