<svg width="14" height="11" viewBox="0 0 14 11" fill="none" xmlns="http://www.w3.org/2000/svg">
<path d="M13.011 4.98632L8.23594 0.211122C8.09995 0.0759018 7.91598 0 7.7242 0C7.53243 0 7.34845 0.0759018 7.21246 0.211122L6.77892 0.64482C6.71162 0.711899 6.65829 0.791665 6.62203 0.879498C6.58577 0.967331 6.5673 1.06149 6.56769 1.15651C6.56687 1.35022 6.64282 1.53637 6.77892 1.67421L9.56461 4.46603H0.714341C0.620474 4.46494 0.527333 4.48258 0.440364 4.51792C0.353395 4.55325 0.274344 4.60557 0.207833 4.67182C0.141323 4.73806 0.0886872 4.81691 0.0530051 4.90373C0.0173229 4.99056 -0.00068984 5.08363 2.0203e-05 5.1775V5.79056C2.0203e-05 6.18969 0.31531 6.53358 0.714341 6.53358H9.59632L6.77903 9.34103C6.71208 9.40763 6.65896 9.4868 6.62271 9.574C6.58646 9.66119 6.5678 9.75469 6.5678 9.84912C6.5678 9.94355 6.58646 10.037 6.62271 10.1242C6.65896 10.2114 6.71208 10.2906 6.77903 10.3572L7.21257 10.7895C7.3487 10.9245 7.53274 11.0002 7.72451 11C7.91627 10.9999 8.10017 10.9238 8.23605 10.7885L13.0111 6.01345C13.1464 5.87679 13.2224 5.69223 13.2224 5.49988C13.2224 5.30754 13.1464 5.12297 13.0111 4.98632H13.011Z" fill="white"/>
</svg>
